<svg width="24" height="24" viewBox="0 0 24 24" fill="none" xmlns="http://www.w3.org/2000/svg">
<path d="M11.1631 6.05007C14.9793 2.23168 20.9195 3.08037 20.9195 3.08037C20.9195 3.08037 21.7685 9.02006 17.9494 12.8385L14.1302 16.6569L7.34399 9.86849L11.1631 6.05007Z" stroke="black" stroke-width="1.2" stroke-miterlimit="10" stroke-linecap="round" stroke-linejoin="round"/>
<path d="M5.22312 6.89874C2.67603 9.44424 4.79708 12.4139 4.79708 12.4139L11.1633 6.05005H6.06911L5.22312 6.89874Z" stroke="black" stroke-width="1.2" stroke-miterlimit="10" stroke-linecap="round" stroke-linejoin="round"/>
<path d="M17.1004 18.7781C14.5563 21.3236 11.5862 19.2023 11.5862 19.2023L17.9494 12.8384V17.9294L17.1004 18.7781Z" stroke="black" stroke-width="1.2" stroke-miterlimit="10" stroke-linecap="round" stroke-linejoin="round"/>
<path d="M12.4351 14.9599L9.03904 11.5657L7.34399 13.2628L10.7371 16.657L12.4351 14.9599Z" stroke="black" stroke-width="1.2" stroke-miterlimit="10" stroke-linecap="round" stroke-linejoin="round"/>
<path d="M7.34416 16.6573C7.86618 17.1795 8.0702 17.9416 7.87518 18.6547C7.68319 19.3677 7.12214 19.9228 6.40813 20.1094C4.69807 20.5564 3 21.0001 3 21.0001C3 21.0001 3.444 19.3024 3.89103 17.593C4.07705 16.8781 4.63204 16.3179 5.34606 16.1248C6.05708 15.9312 6.82211 16.1341 7.34413 16.6567C7.34413 16.6567 7.34416 16.657 7.34416 16.6573Z" stroke="black" stroke-width="1.2" stroke-miterlimit="10" stroke-linecap="round" stroke-linejoin="round"/>
</svg>
