<svg width="24" height="24" viewBox="0 0 24 24" fill="none" xmlns="http://www.w3.org/2000/svg">
<path d="M13.5466 13.9292C16.5646 13.9292 19.0112 11.4826 19.0112 8.4646C19.0112 5.44658 16.5646 3 13.5466 3C10.5286 3 8.08203 5.44658 8.08203 8.4646C8.08203 11.4826 10.5286 13.9292 13.5466 13.9292Z" stroke="black" stroke-width="1.2" stroke-miterlimit="10" stroke-linecap="round" stroke-linejoin="round"/>
<path d="M13.5468 13.9292C14.6595 13.9292 15.5615 11.4826 15.5615 8.4646C15.5615 5.44658 14.6595 3 13.5468 3C12.434 3 11.532 5.44658 11.532 8.4646C11.532 11.4826 12.434 13.9292 13.5468 13.9292Z" stroke="black" stroke-width="1.2" stroke-miterlimit="10" stroke-linecap="round" stroke-linejoin="round"/>
<path d="M8.2356 8.4646H18.8576" stroke="black" stroke-width="1.2" stroke-miterlimit="10" stroke-linecap="round" stroke-linejoin="round"/>
<path d="M20.7174 17.1724C20.7174 15.3917 19.2734 13.9483 17.4927 13.9491L10.3259 13.952C9.40034 13.952 8.64987 14.7117 8.64987 15.6487C8.64987 16.5856 9.40034 17.3453 10.3259 17.3453C9.70779 17.3455 9.13023 17.0377 8.78575 16.5244L6.05901 12.6519C5.48851 12.074 4.59129 11.9929 3.92846 12.4589C3.07429 13.0591 3.14137 14.1994 3.70014 15.0398L6.71914 19.5174C7.312 20.4412 8.33422 20.9998 9.43192 20.9998H20.7174" stroke="black" stroke-width="1.2" stroke-miterlimit="10" stroke-linecap="round" stroke-linejoin="round"/>
<path d="M10.3259 17.3455H14.7724" stroke="black" stroke-width="1.2" stroke-miterlimit="10" stroke-linecap="round" stroke-linejoin="round"/>
</svg>
