<svg width="24" height="24" viewBox="0 0 24 24" fill="none" xmlns="http://www.w3.org/2000/svg">
<path d="M13.9478 13.344C13.4113 13.9532 12.758 14.4516 12.0227 14.8129V16.8896C12.0227 17.0732 11.9494 17.2493 11.8191 17.3791C11.6887 17.509 11.512 17.5819 11.3276 17.5819H7.15755C6.97322 17.5819 6.79644 17.509 6.6661 17.3791C6.53576 17.2493 6.46254 17.0732 6.46254 16.8896V14.8129C4.99793 14.0848 3.87825 12.8139 3.34379 11.2728C2.80932 9.7318 2.90266 8.0435 3.60378 6.57024C4.30489 5.09697 5.55791 3.95615 7.09393 3.39258C8.62995 2.82902 10.3266 2.88762 11.8197 3.55581M6.46254 21.0001H12.0227" stroke="black" stroke-width="1.2" stroke-linecap="round" stroke-linejoin="round"/>
<path d="M12.5424 7.75618C12.0545 7.67173 12.0545 6.97395 12.5424 6.8895C13.406 6.73905 14.2052 6.33623 14.8383 5.73224C15.4715 5.12826 15.91 4.3504 16.0981 3.49755L16.1273 3.36187C16.233 2.88146 16.9196 2.87869 17.0295 3.35772L17.0656 3.51416C17.2598 4.36371 17.7019 5.13708 18.3363 5.73695C18.9707 6.33681 19.7691 6.73637 20.631 6.88535C21.1217 6.97119 21.1217 7.67173 20.631 7.75756C19.7694 7.90679 18.9713 8.30646 18.3371 8.90631C17.703 9.50616 17.261 10.2794 17.067 11.1288L17.0308 11.2852C16.921 11.7642 16.2344 11.7615 16.1287 11.281L16.1009 11.1467C15.9126 10.2935 15.4737 9.51539 14.84 8.91137C14.2063 8.30735 13.4065 7.90613 12.5424 7.75618Z" stroke="black" stroke-width="1.2" stroke-linecap="round" stroke-linejoin="round"/>
</svg>
