<svg
  width="160"
  height="35"
  viewBox="0 0 160 35"
  fill="none"
  xmlns="http://www.w3.org/2000/svg"
>
  <path d="M160 0.462906H137.178V33.6429H160V0.462906Z" fill="white" />
  <path
    d="M6.16085 6.36487V14.0854H11.0134V20.0039H6.17741V33.6263H0V0.462906H12.5039V6.36487H6.16085Z"
    fill="#C80000"
  />
  <path
    d="M28.9162 20.8305V33.6263H22.7388V22.0043C22.7388 20.9793 21.8942 20.1361 20.8674 20.1361H20.1718V33.6263H13.9944V0.462906H24.0472C26.7467 0.462906 28.9162 2.64515 28.9162 5.32335V13.4076C28.9162 15.4906 27.227 17.1769 25.1402 17.1769H25.2396C27.2767 17.1769 28.9162 18.8136 28.9162 20.8305ZM21.5133 6.36487H20.1718V14.2176H21.2814C22.0929 14.2176 22.7388 13.5563 22.7388 12.7628V7.58825C22.7388 6.91043 22.1923 6.36487 21.5133 6.36487Z"
    fill="#C80000"
  />
  <path
    d="M30.324 33.6263L34.8452 0.446363H42.1985L46.7198 33.6263H41.3539L40.7742 29.3445H36.2861L35.7064 33.6263H30.324ZM36.9817 24.203H40.0787L38.5384 12.862L36.9817 24.203Z"
    fill="#C80000"
  />
  <path
    d="M62.8176 0.462906V33.6429H57.0045L53.8082 21.376V33.6429H47.9951V0.462906H53.3942L53.8082 2.01693L57.0045 14.1019V0.462906H62.8176Z"
    fill="#C80000"
  />
  <path
    d="M79.4616 19.2269V27.8566C79.4616 31.2788 76.6793 34.0562 73.2511 34.0562H70.7503C67.3221 34.0562 64.5398 31.2788 64.5398 27.8566V6.21609C64.5398 2.79394 67.3221 0.0165424 70.7503 0.0165424H73.2511C76.6793 0.0165424 79.4616 2.79394 79.4616 6.21609V13.3084H73.2842V7.14189C73.2842 6.46407 72.7377 5.91851 72.0587 5.91851H71.9428C71.2637 5.91851 70.7172 6.46407 70.7172 7.14189V26.9143C70.7172 27.5921 71.2637 28.1377 71.9428 28.1377H72.0587C72.7377 28.1377 73.2842 27.5921 73.2842 26.9143V19.2103H79.4616V19.2269Z"
    fill="#C80000"
  />
  <path
    d="M96.1227 0.462906V33.6429H89.9453V20.0204H87.4445V33.6429H81.2671V0.462906H87.4445V14.0854H89.9453V0.462906H96.1227Z"
    fill="#C80000"
  />
  <path
    d="M97.9277 33.6263V0.462906H104.105V33.6429H97.9277V33.6263Z"
    fill="#C80000"
  />
  <path
    d="M114.589 11.2914V7.15841C114.589 6.48059 114.042 5.93503 113.363 5.93503H113.247C112.568 5.93503 112.022 6.48059 112.022 7.15841V10.531C112.022 11.4733 112.403 12.0188 112.684 12.2999L112.982 12.5313L118.282 16.6148C118.282 16.6148 120.749 18.2019 120.749 22.0043V27.8566C120.749 31.2788 117.967 34.0562 114.539 34.0562H112.038C108.61 34.0562 105.828 31.2788 105.828 27.8566V21.9877H112.038V26.9143C112.038 27.5921 112.585 28.1377 113.264 28.1377H113.38C114.059 28.1377 114.605 27.5921 114.605 26.9143V22.5994C114.605 22.401 114.539 21.6075 113.86 21.0785L107.997 16.5652C105.596 14.7136 105.877 12.0684 105.877 12.0684V6.19954C105.877 2.7774 108.66 0 112.088 0H114.589C118.017 0 120.799 2.7774 120.799 6.19954V11.2749H114.589V11.2914Z"
    fill="#C80000"
  />
  <path
    d="M128.748 6.36487V14.0854H133.584V20.0039H128.748V27.7244H135.091V33.6429H122.571V0.462906H135.091V6.36487H128.748Z"
    fill="#C80000"
  />
  <path
    d="M137.178 0.462906V16.9124L148.871 5.25722L151.637 8.01809L153.442 9.82009L160 3.2899V0.462906H137.178Z"
    fill="#00263B"
  />
  <path
    d="M156.092 12.6967L153.442 15.3583L148.871 10.7955L137.178 22.4506V22.4341V33.6263H160V8.81161L156.108 12.6967H156.092Z"
    fill="#00263B"
  />
  <path
    d="M143.008 22.6986V29.328H141.766V26.5506L141.07 29.328H140.756L140.06 26.5506V29.328H138.818V22.6986H140.159L140.905 25.6248L141.65 22.6986H143.008Z"
    fill="white"
  />
  <path
    d="M143.273 29.328L144.184 22.6986H145.658L146.569 29.328H145.492L145.376 28.4683H144.482L144.366 29.328H143.273ZM144.598 27.4433H145.211L144.896 25.1784L144.598 27.4433Z"
    fill="white"
  />
  <path
    d="M149.782 26.7655V29.328H148.539V26.9969C148.539 26.7986 148.374 26.6167 148.159 26.6167H148.026V29.3114H146.784V22.6821H148.788C149.318 22.6821 149.765 23.1119 149.765 23.6575V25.2776C149.765 25.6909 149.434 26.0216 149.02 26.0216H149.036C149.45 26.0381 149.782 26.3687 149.782 26.7655ZM148.308 23.8889H148.043V25.4595H148.258C148.424 25.4595 148.556 25.3272 148.556 25.1619V24.1204C148.539 23.9881 148.44 23.8889 148.308 23.8889Z"
    fill="white"
  />
  <path
    d="M152.034 29.328L151.372 26.6002V29.328H150.129V22.6986H151.372V25.4264L152.034 22.6986H153.144L152.332 26.0216L153.144 29.328H152.034Z"
    fill="white"
  />
  <path
    d="M154.651 23.8889V25.4264H155.611V26.6002H154.651V28.1377H155.926V29.3114H153.425V22.6821H155.926V23.8558H154.651V23.8889Z"
    fill="white"
  />
  <path
    d="M159.089 23.8889H158.261V29.328H157.019V23.8889H156.191V22.7151H159.105V23.8889H159.089Z"
    fill="white"
  />
  <path
    d="M139.994 30.6175H139.679V32.7171H139.199V30.6175H138.884V30.1711H139.994V30.6175Z"
    fill="white"
  />
  <path
    d="M146.635 31.7251V32.7005H146.155V31.8243C146.155 31.7417 146.088 31.6756 146.006 31.6756H145.956V32.7171H145.476V30.1711H146.254C146.453 30.1711 146.635 30.3364 146.635 30.5514V31.1796C146.635 31.3449 146.502 31.4606 146.353 31.4606C146.502 31.4441 146.635 31.5764 146.635 31.7251ZM146.072 30.6175H145.972V31.2126H146.055C146.121 31.2126 146.171 31.1631 146.171 31.0969V30.7002C146.155 30.6671 146.121 30.6175 146.072 30.6175Z"
    fill="white"
  />
  <path
    d="M149.533 32.7171L149.285 31.6756V32.7171H148.804V30.1711H149.285V31.2126L149.533 30.1711H149.964L149.649 31.4441L149.964 32.7171H149.533Z"
    fill="white"
  />
  <path
    d="M155.943 30.1711L155.562 31.7747V32.7171H155.081V31.7251L154.7 30.1711H155.148L155.214 30.5348L155.313 31.0473L155.413 30.5348L155.479 30.1711H155.943Z"
    fill="white"
  />
  <path
    d="M158.576 30.6175V31.2126H158.94V31.659H158.576V32.2542H159.056V32.7005H158.095V30.1711H159.056V30.6175H158.576Z"
    fill="white"
  />
  <path d="M143.174 30.1711H142.809V30.4356H143.174V30.1711Z" fill="white" />
  <path d="M142.677 30.1711H142.312V30.4356H142.677V30.1711Z" fill="white" />
  <path
    d="M142.842 30.6175V32.188C142.842 32.2376 142.793 32.2872 142.743 32.2872H142.726C142.677 32.2872 142.627 32.2376 142.627 32.188V30.6175H142.147V32.2707C142.147 32.5352 142.362 32.7501 142.627 32.7501H142.826C143.091 32.7501 143.306 32.5352 143.306 32.2707V30.6175H142.842Z"
    fill="white"
  />
  <path d="M152.58 30.1711H152.1V30.5183H152.58V30.1711Z" fill="white" />
  <path d="M152.58 30.7332H152.1V32.7171H152.58V30.7332Z" fill="white" />
</svg>
