<svg width="48" height="48" viewBox="0 0 48 48" fill="none" xmlns="http://www.w3.org/2000/svg">
<path d="M29.8123 23.8994C30.034 23.8994 30.2131 23.7199 30.2131 23.4986C30.2131 23.2774 30.034 23.0979 29.8123 23.0979H29.65V18.4481C29.7041 18.3984 29.763 18.3539 29.8111 18.2974C30.1333 17.9202 30.2688 17.4497 30.1927 16.9724L29.456 12.3379C29.4252 12.1431 29.2573 12 29.0605 12H18.8988C18.7021 12 18.5341 12.1431 18.5033 12.3379L17.7666 16.9724C17.6909 17.4497 17.826 17.9202 18.1482 18.2974C18.1963 18.3539 18.2552 18.3984 18.3093 18.4481V23.0979H18.147C17.9254 23.0979 17.7462 23.2774 17.7462 23.4986C17.7462 23.7199 17.9254 23.8994 18.147 23.8994H29.8119H29.8123ZM28.7186 12.8015L29.4015 17.0983C29.44 17.3403 29.3691 17.5812 29.2019 17.7768C29.0008 18.0124 28.6938 18.1475 28.3595 18.1475C27.8097 18.1475 27.3492 17.7704 27.3107 17.2886L26.954 12.8011H28.7182L28.7186 12.8015ZM26.4963 17.1612C26.5152 17.3944 26.4326 17.6225 26.2647 17.8044C26.0635 18.0224 25.7657 18.1471 25.4475 18.1471H25.4323C24.8523 18.1471 24.3806 17.7331 24.3806 17.2245V12.8015H26.1501L26.2378 13.9081L26.4963 17.1612ZM23.5791 17.2249C23.5791 17.7339 23.1074 18.1475 22.5274 18.1475H22.5126C22.1944 18.1475 21.8966 18.0224 21.6954 17.8048C21.5279 17.6237 21.4458 17.396 21.4634 17.164L21.8097 12.8015H23.5791V17.2249ZM18.5586 17.0983L19.2415 12.8015H21.0053L20.9324 13.7217L20.6642 17.0975C20.6642 17.0975 20.6642 17.0995 20.6642 17.1003L20.6494 17.2886C20.6109 17.7704 20.1501 18.1475 19.6002 18.1475C19.2663 18.1475 18.9594 18.0124 18.7582 17.7768C18.591 17.5808 18.5201 17.3399 18.5586 17.0979V17.0983ZM20.6887 23.0983V20.2211H22.6156V23.0983H20.6887ZM23.4172 23.0983V19.8203C23.4172 19.5991 23.238 19.4195 23.0164 19.4195H20.2879C20.0663 19.4195 19.8871 19.5991 19.8871 19.8203V23.0983H19.1112V18.8825C19.2691 18.9226 19.4315 18.9494 19.5998 18.9494C20.1869 18.9494 20.7147 18.6877 21.0562 18.2825C21.0742 18.3042 21.0871 18.3282 21.1063 18.3491C21.4586 18.7306 21.9712 18.9494 22.5122 18.9494H22.527C23.1186 18.9494 23.64 18.6857 23.9795 18.2829C24.3189 18.6853 24.8403 18.9494 25.4319 18.9494H25.4471C25.9885 18.9494 26.5007 18.7306 26.8534 18.3487C26.8726 18.3278 26.8855 18.3038 26.9035 18.2825C27.245 18.6873 27.7724 18.9494 28.3595 18.9494C28.5278 18.9494 28.6906 18.9226 28.8485 18.8825V23.0983H23.4168H23.4172Z" fill="#A0A0A0"/>
<path d="M27.6723 19.4191H24.5414C24.3198 19.4191 24.1406 19.5986 24.1406 19.8198V21.9876C24.1406 22.2089 24.3198 22.3884 24.5414 22.3884H27.6723C27.8939 22.3884 28.073 22.2089 28.073 21.9876V19.8198C28.073 19.5986 27.8939 19.4191 27.6723 19.4191ZM27.2715 21.5869H24.9422V20.2206H27.2715V21.5869Z" fill="#A0A0A0"/>
<path d="M15.1918 27.183C13.4316 27.183 12 28.6145 12 30.3744C12 32.0183 14.5938 35.0446 14.8896 35.384C14.9653 35.4714 15.0759 35.5215 15.1918 35.5215C15.3076 35.5215 15.4178 35.4714 15.494 35.384C15.7897 35.0442 18.3831 32.0179 18.3831 30.3744C18.3831 28.6145 16.9516 27.183 15.1918 27.183ZM15.1918 34.4995C14.3225 33.4419 12.8015 31.3831 12.8015 30.3744C12.8015 29.0566 13.874 27.9845 15.1918 27.9845C16.5095 27.9845 17.5816 29.0566 17.5816 30.3744C17.5816 31.3831 16.061 33.4419 15.1918 34.4995Z" fill="#A0A0A0"/>
<path d="M15.1919 28.7821C14.3142 28.7821 13.5996 29.4963 13.5996 30.3744C13.5996 31.2525 14.3138 31.9667 15.1919 31.9667C16.07 31.9667 16.7842 31.2525 16.7842 30.3744C16.7842 29.4963 16.07 28.7821 15.1919 28.7821ZM15.1919 31.1647C14.7558 31.1647 14.4012 30.81 14.4012 30.374C14.4012 29.9379 14.7558 29.5833 15.1919 29.5833C15.6279 29.5833 15.9826 29.9379 15.9826 30.374C15.9826 30.81 15.6279 31.1647 15.1919 31.1647Z" fill="#A0A0A0"/>
<path d="M23.9785 27.183C22.2187 27.183 20.7871 28.6145 20.7871 30.3744C20.7871 32.0183 23.3805 35.0446 23.6763 35.384C23.752 35.4714 23.8627 35.5215 23.9785 35.5215C24.0943 35.5215 24.2045 35.4714 24.2807 35.384C24.5764 35.0442 27.1702 32.0179 27.1702 30.3744C27.1702 28.6145 25.7387 27.183 23.9785 27.183ZM23.9785 34.4995C23.1092 33.4423 21.5887 31.3839 21.5887 30.3744C21.5887 29.0566 22.6607 27.9845 23.9785 27.9845C25.2962 27.9845 26.3687 29.0566 26.3687 30.3744C26.3687 31.3831 24.8478 33.4423 23.9785 34.4995Z" fill="#A0A0A0"/>
<path d="M23.979 28.7821C23.1013 28.7821 22.3867 29.4963 22.3867 30.3744C22.3867 31.2525 23.1009 31.9667 23.979 31.9667C24.8571 31.9667 25.5713 31.2525 25.5713 30.3744C25.5713 29.4963 24.8571 28.7821 23.979 28.7821ZM23.979 31.1647C23.543 31.1647 23.1883 30.81 23.1883 30.374C23.1883 29.9379 23.543 29.5833 23.979 29.5833C24.415 29.5833 24.7697 29.9379 24.7697 30.374C24.7697 30.81 24.415 31.1647 23.979 31.1647Z" fill="#A0A0A0"/>
<path d="M32.809 27.183C31.0488 27.183 29.6172 28.6145 29.6172 30.3744C29.6172 32.0183 32.211 35.0446 32.5068 35.384C32.5825 35.4714 32.6931 35.5215 32.809 35.5215C32.9248 35.5215 33.035 35.4714 33.1111 35.384C33.4069 35.0442 36.0003 32.0179 36.0003 30.3744C36.0003 28.6145 34.5688 27.183 32.809 27.183ZM32.809 34.4995C31.9397 33.4419 30.4187 31.3831 30.4187 30.3744C30.4187 29.0566 31.4912 27.9845 32.809 27.9845C34.1267 27.9845 35.1988 29.0566 35.1988 30.3744C35.1988 31.3831 33.6782 33.4419 32.809 34.4995Z" fill="#A0A0A0"/>
<path d="M32.8091 28.7821C31.9314 28.7821 31.2168 29.4963 31.2168 30.3744C31.2168 31.2525 31.931 31.9667 32.8091 31.9667C33.6872 31.9667 34.4014 31.2525 34.4014 30.3744C34.4014 29.4963 33.6872 28.7821 32.8091 28.7821ZM32.8091 31.1647C32.373 31.1647 32.0183 30.81 32.0183 30.374C32.0183 29.9379 32.373 29.5833 32.8091 29.5833C33.2451 29.5833 33.5998 29.9379 33.5998 30.374C33.5998 30.81 33.2451 31.1647 32.8091 31.1647Z" fill="#A0A0A0"/>
<path d="M21.3871 24.3727L17.823 27.5188C17.6571 27.6651 17.6414 27.9183 17.7877 28.0843C17.8671 28.174 17.9777 28.2197 18.0883 28.2197C18.1825 28.2197 18.2775 28.1865 18.3536 28.1195L21.9177 24.9735C22.0836 24.8272 22.0993 24.5739 21.953 24.408C21.8059 24.2416 21.5534 24.2264 21.3871 24.3727Z" fill="#A0A0A0"/>
<path d="M29.6472 28.1192C29.7234 28.1865 29.8184 28.2194 29.9126 28.2194C30.0232 28.2194 30.1338 28.1737 30.2131 28.0839C30.3594 27.918 30.3438 27.6647 30.1779 27.5184L26.6134 24.3723C26.4475 24.226 26.195 24.2413 26.0475 24.4076C25.9012 24.5735 25.9168 24.8268 26.0828 24.9731L29.6472 28.1192Z" fill="#A0A0A0"/>
<path d="M23.5781 24.6729V26.5104C23.5781 26.7316 23.7573 26.9112 23.9789 26.9112C24.2005 26.9112 24.3797 26.7316 24.3797 26.5104V24.6729C24.3797 24.4516 24.2005 24.2721 23.9789 24.2721C23.7573 24.2721 23.5781 24.4516 23.5781 24.6729Z" fill="#A0A0A0"/>
</svg>
