<svg width="48" height="48" viewBox="0 0 48 48" fill="none" xmlns="http://www.w3.org/2000/svg">
<path d="M19.4883 18.6809V23.8078C19.4883 23.8755 19.5152 23.9404 19.5631 23.9883C19.611 24.0362 19.6759 24.0631 19.7436 24.0631H28.2458C28.3135 24.0631 28.3785 24.0362 28.4264 23.9883C28.4743 23.9404 28.5012 23.8755 28.5012 23.8078V18.6809C28.7903 18.6142 29.0484 18.4519 29.2338 18.2202C29.4191 17.9885 29.5208 17.701 29.5224 17.4043C29.5224 17.3747 29.5172 17.3453 29.5071 17.3175L28.5241 14.4681V14.4528V13.2553C28.5241 13.1876 28.4972 13.1227 28.4494 13.0748C28.4015 13.0269 28.3365 13 28.2688 13H19.7028C19.6351 13 19.5701 13.0269 19.5222 13.0748C19.4744 13.1227 19.4475 13.1876 19.4475 13.2553V14.5575L18.4772 17.3098C18.4671 17.3377 18.4619 17.367 18.4619 17.3966C18.4621 17.6954 18.5637 17.9852 18.7502 18.2185C18.9367 18.4519 19.197 18.6149 19.4883 18.6809ZM22.2968 23.532V20.1899H25.7028V23.5448L22.2968 23.532ZM27.9854 23.532H26.2313V19.9243C26.2313 19.8566 26.2044 19.7917 26.1566 19.7438C26.1087 19.6959 26.0437 19.669 25.976 19.669H22.0313C21.9636 19.669 21.8987 19.6959 21.8508 19.7438C21.8029 19.7917 21.776 19.8566 21.776 19.9243V23.5448H20.0168V18.6937C20.3444 18.6342 20.6368 18.4514 20.8339 18.183C20.9568 18.3469 21.1162 18.4798 21.2995 18.5714C21.4827 18.663 21.6848 18.7107 21.8896 18.7107C22.0945 18.7107 22.2965 18.663 22.4797 18.5714C22.663 18.4798 22.8224 18.3469 22.9454 18.183C23.0681 18.3468 23.2272 18.4798 23.4103 18.5714C23.5933 18.663 23.7952 18.7107 23.9998 18.7107C24.2045 18.7107 24.4064 18.663 24.5894 18.5714C24.7724 18.4798 24.9316 18.3468 25.0543 18.183C25.1773 18.3469 25.3367 18.4798 25.5199 18.5714C25.7032 18.663 25.9052 18.7107 26.1101 18.7107C26.3149 18.7107 26.517 18.663 26.7002 18.5714C26.8834 18.4798 27.0429 18.3469 27.1658 18.183C27.3629 18.4514 27.6552 18.6342 27.9829 18.6937L27.9854 23.532ZM19.9658 13.5234H27.988V14.2894H19.9658V13.5234ZM19.9147 14.8204H28.085L29.0067 17.44C28.991 17.6425 28.8981 17.8313 28.7472 17.9672C28.5963 18.1031 28.3989 18.1758 28.1958 18.1702C27.9928 18.1646 27.7997 18.0812 27.6564 17.9372C27.5132 17.7932 27.4308 17.5997 27.4263 17.3966C27.4263 17.3266 27.3984 17.2593 27.3489 17.2098C27.2993 17.1602 27.2321 17.1324 27.162 17.1324C27.0919 17.1324 27.0247 17.1602 26.9751 17.2098C26.9256 17.2593 26.8977 17.3266 26.8977 17.3966C26.8977 17.6066 26.8143 17.8079 26.6659 17.9563C26.5175 18.1047 26.3162 18.1881 26.1062 18.1881C25.8963 18.1881 25.695 18.1047 25.5466 17.9563C25.3981 17.8079 25.3147 17.6066 25.3147 17.3966C25.3147 17.3269 25.287 17.26 25.2377 17.2107C25.1884 17.1614 25.1215 17.1337 25.0518 17.1337C24.982 17.1337 24.9151 17.1614 24.8658 17.2107C24.8165 17.26 24.7888 17.3269 24.7888 17.3966C24.7888 17.6066 24.7054 17.8079 24.557 17.9563C24.4085 18.1047 24.2072 18.1881 23.9973 18.1881C23.7874 18.1881 23.586 18.1047 23.4376 17.9563C23.2892 17.8079 23.2058 17.6066 23.2058 17.3966C23.2058 17.3269 23.1781 17.26 23.1288 17.2107C23.0794 17.1614 23.0126 17.1337 22.9428 17.1337C22.8731 17.1337 22.8062 17.1614 22.7569 17.2107C22.7075 17.26 22.6798 17.3269 22.6798 17.3966C22.6798 17.6066 22.5964 17.8079 22.448 17.9563C22.2996 18.1047 22.0982 18.1881 21.8883 18.1881C21.6784 18.1881 21.4771 18.1047 21.3287 17.9563C21.1802 17.8079 21.0968 17.6066 21.0968 17.3966C21.0968 17.3266 21.069 17.2593 21.0194 17.2098C20.9699 17.1602 20.9027 17.1324 20.8326 17.1324C20.7625 17.1324 20.6953 17.1602 20.6457 17.2098C20.5962 17.2593 20.5683 17.3266 20.5683 17.3966C20.5638 17.5997 20.4814 17.7932 20.3381 17.9372C20.1949 18.0812 20.0018 18.1646 19.7987 18.1702C19.5957 18.1758 19.3983 18.1031 19.2474 17.9672C19.0964 17.8313 19.0035 17.6425 18.9879 17.44L19.9147 14.8204Z" fill="#A0A0A0"/>
<path d="M19.1975 29.1567V28.3345C19.1975 28.2668 19.1706 28.2019 19.1227 28.154C19.0748 28.1061 19.0099 28.0792 18.9422 28.0792H12.9472C12.8795 28.0792 12.8146 28.1061 12.7667 28.154C12.7188 28.2019 12.6919 28.2668 12.6919 28.3345V29.2435L12.0153 31.1456C12.0052 31.1735 12 31.2028 12 31.2324C12.0003 31.4478 12.0703 31.6572 12.1997 31.8294C12.329 32.0016 12.5107 32.1272 12.7175 32.1873V35.7235C12.7175 35.7913 12.7444 35.8562 12.7922 35.9041C12.8401 35.952 12.9051 35.9789 12.9728 35.9789H18.9294C18.9971 35.9789 19.0621 35.952 19.11 35.9041C19.1578 35.8562 19.1847 35.7913 19.1847 35.7235V32.1899C19.3937 32.1308 19.5778 32.0055 19.7094 31.8329C19.8411 31.6602 19.9132 31.4496 19.915 31.2324C19.9149 31.2028 19.9097 31.1735 19.8996 31.1456L19.1975 29.1567ZM13.2102 28.5975H18.669V28.9805H13.2102V28.5975ZM14.8417 35.4682V33.2648H17.0707V35.4682H14.8417ZM18.6715 35.4682H17.5966V33.0018C17.5966 32.9341 17.5697 32.8692 17.5219 32.8213C17.474 32.7734 17.409 32.7465 17.3413 32.7465H14.5762C14.5085 32.7465 14.4435 32.7734 14.3957 32.8213C14.3478 32.8692 14.3209 32.9341 14.3209 33.0018V35.4682H13.246V32.2027C13.4358 32.1543 13.6078 32.0524 13.7413 31.909C13.8351 32.0114 13.9491 32.0931 14.0761 32.1489C14.2031 32.2048 14.3404 32.2337 14.4792 32.2337C14.618 32.2337 14.7552 32.2048 14.8822 32.1489C15.0093 32.0931 15.1233 32.0114 15.2171 31.909C15.311 32.0114 15.4253 32.0932 15.5525 32.1491C15.6798 32.205 15.8172 32.2339 15.9562 32.2339C16.0952 32.2339 16.2327 32.205 16.3599 32.1491C16.4871 32.0932 16.6014 32.0114 16.6954 31.909C16.7891 32.0114 16.9031 32.0931 17.0302 32.1489C17.1572 32.2048 17.2945 32.2337 17.4332 32.2337C17.572 32.2337 17.7093 32.2048 17.8363 32.1489C17.9633 32.0931 18.0774 32.0114 18.1711 31.909C18.3032 32.0524 18.4746 32.1537 18.6639 32.2001L18.6715 35.4682ZM18.9269 31.7201C18.8011 31.7194 18.6807 31.6692 18.5918 31.5803C18.5029 31.4914 18.4526 31.371 18.452 31.2452C18.452 31.1755 18.4243 31.1086 18.3749 31.0593C18.3256 31.0099 18.2587 30.9822 18.189 30.9822C18.1192 30.9822 18.0524 31.0099 18.003 31.0593C17.9537 31.1086 17.926 31.1755 17.926 31.2452C17.926 31.3712 17.876 31.492 17.7869 31.581C17.6979 31.6701 17.5771 31.7201 17.4511 31.7201C17.3252 31.7201 17.2044 31.6701 17.1153 31.581C17.0262 31.492 16.9762 31.3712 16.9762 31.2452C16.9762 31.1751 16.9484 31.1079 16.8988 31.0584C16.8493 31.0088 16.782 30.981 16.712 30.981C16.6419 30.981 16.5747 31.0088 16.5251 31.0584C16.4755 31.1079 16.4477 31.1751 16.4477 31.2452C16.4477 31.3712 16.3977 31.492 16.3086 31.581C16.2195 31.6701 16.0988 31.7201 15.9728 31.7201C15.8469 31.7201 15.7261 31.6701 15.637 31.581C15.5479 31.492 15.4979 31.3712 15.4979 31.2452C15.4979 31.1755 15.4702 31.1086 15.4209 31.0593C15.3716 31.0099 15.3047 30.9822 15.2349 30.9822C15.1652 30.9822 15.0983 31.0099 15.049 31.0593C14.9996 31.1086 14.9719 31.1755 14.9719 31.2452C14.9719 31.3712 14.9219 31.492 14.8328 31.581C14.7438 31.6701 14.623 31.7201 14.497 31.7201C14.3711 31.7201 14.2503 31.6701 14.1612 31.581C14.0722 31.492 14.0221 31.3712 14.0221 31.2452C14.0221 31.1751 13.9943 31.1079 13.9447 31.0584C13.8952 31.0088 13.828 30.981 13.7579 30.981C13.6878 30.981 13.6206 31.0088 13.571 31.0584C13.5215 31.1079 13.4936 31.1751 13.4936 31.2452C13.4917 31.3663 13.4435 31.482 13.3591 31.5688C13.2746 31.6555 13.1602 31.7067 13.0393 31.7119C12.9183 31.7172 12.7999 31.676 12.7083 31.5968C12.6167 31.5177 12.5588 31.4065 12.5464 31.2861L13.1489 29.5065H18.766L19.389 31.2733C19.3787 31.3929 19.3234 31.5042 19.2344 31.5847C19.1453 31.6653 19.0291 31.7091 18.909 31.7073L18.9269 31.7201Z" fill="#A0A0A0"/>
<path d="M35.9851 31.1456L35.2856 29.1567V28.3345C35.2856 28.2668 35.2587 28.2019 35.2108 28.154C35.1629 28.1061 35.0979 28.0792 35.0302 28.0792H29.0353C28.9676 28.0792 28.9026 28.1061 28.8547 28.154C28.8069 28.2019 28.78 28.2668 28.78 28.3345V29.2435L28.111 31.1456C28.1009 31.1735 28.0957 31.2028 28.0957 31.2324C28.0961 31.4481 28.1665 31.6578 28.2964 31.83C28.4262 32.0022 28.6085 32.1276 28.8157 32.1873V35.7235C28.8157 35.7913 28.8426 35.8562 28.8905 35.9041C28.9384 35.952 29.0033 35.9789 29.071 35.9789H35.0175C35.0852 35.9789 35.1501 35.952 35.198 35.9041C35.2459 35.8562 35.2728 35.7913 35.2728 35.7235V32.1899C35.4812 32.1303 35.6648 32.0049 35.7959 31.8323C35.9271 31.6597 35.9989 31.4492 36.0005 31.2324C36.0004 31.2028 35.9952 31.1735 35.9851 31.1456ZM29.2983 28.5924H34.757V28.9754H29.2983V28.5924ZM30.9298 35.4682V33.2648H33.1587V35.4682H30.9298ZM34.7596 35.4682H33.6847V33.0018C33.6847 32.9341 33.6578 32.8692 33.6099 32.8213C33.562 32.7734 33.4971 32.7465 33.4294 32.7465H30.6668C30.5991 32.7465 30.5341 32.7734 30.4863 32.8213C30.4384 32.8692 30.4115 32.9341 30.4115 33.0018V35.4682H29.334V32.2027C29.5239 32.1543 29.6958 32.0524 29.8293 31.909C29.9231 32.0114 30.0371 32.0931 30.1641 32.1489C30.2912 32.2048 30.4284 32.2337 30.5672 32.2337C30.706 32.2337 30.8433 32.2048 30.9703 32.1489C31.0973 32.0931 31.2113 32.0114 31.3051 31.909C31.3991 32.0114 31.5133 32.0932 31.6406 32.1491C31.7678 32.205 31.9053 32.2339 32.0442 32.2339C32.1832 32.2339 32.3207 32.205 32.4479 32.1491C32.5752 32.0932 32.6894 32.0114 32.7834 31.909C32.8772 32.0114 32.9912 32.0931 33.1182 32.1489C33.2452 32.2048 33.3825 32.2337 33.5213 32.2337C33.6601 32.2337 33.7973 32.2048 33.9244 32.1489C34.0514 32.0931 34.1654 32.0114 34.2592 31.909C34.3912 32.0524 34.5626 32.1537 34.7519 32.2001L34.7596 35.4682ZM35.0149 31.7201C34.8892 31.7194 34.7688 31.6692 34.6799 31.5803C34.5909 31.4914 34.5407 31.371 34.54 31.2452C34.54 31.1755 34.5123 31.1086 34.463 31.0593C34.4137 31.0099 34.3468 30.9822 34.277 30.9822C34.2073 30.9822 34.1404 31.0099 34.0911 31.0593C34.0418 31.1086 34.0141 31.1755 34.0141 31.2452C34.0141 31.3712 33.964 31.492 33.875 31.581C33.7859 31.6701 33.6651 31.7201 33.5392 31.7201C33.4132 31.7201 33.2924 31.6701 33.2034 31.581C33.1143 31.492 33.0643 31.3712 33.0643 31.2452C33.0643 31.1751 33.0364 31.1079 32.9869 31.0584C32.9373 31.0088 32.8701 30.981 32.8 30.981C32.7299 30.981 32.6627 31.0088 32.6131 31.0584C32.5636 31.1079 32.5357 31.1751 32.5357 31.2452C32.5405 31.3103 32.5318 31.3757 32.5102 31.4373C32.4886 31.499 32.4545 31.5554 32.41 31.6033C32.3656 31.6511 32.3117 31.6893 32.2519 31.7154C32.192 31.7414 32.1274 31.7549 32.0621 31.7549C31.9968 31.7549 31.9322 31.7414 31.8724 31.7154C31.8125 31.6893 31.7587 31.6511 31.7142 31.6033C31.6698 31.5554 31.6357 31.499 31.614 31.4373C31.5924 31.3757 31.5837 31.3103 31.5885 31.2452C31.5885 31.1751 31.5607 31.1079 31.5111 31.0584C31.4615 31.0088 31.3943 30.981 31.3242 30.981C31.2542 30.981 31.1869 31.0088 31.1374 31.0584C31.0878 31.1079 31.06 31.1751 31.06 31.2452C31.06 31.3712 31.01 31.492 30.9209 31.581C30.8318 31.6701 30.711 31.7201 30.5851 31.7201C30.4591 31.7201 30.3383 31.6701 30.2493 31.581C30.1602 31.492 30.1102 31.3712 30.1102 31.2452C30.1102 31.1755 30.0825 31.1086 30.0332 31.0593C29.9838 31.0099 29.917 30.9822 29.8472 30.9822C29.7775 30.9822 29.7106 31.0099 29.6613 31.0593C29.6119 31.1086 29.5842 31.1755 29.5842 31.2452C29.5896 31.3712 29.5448 31.4941 29.4596 31.587C29.3743 31.6799 29.2557 31.7351 29.1298 31.7405C29.0038 31.746 28.8809 31.7011 28.788 31.6159C28.6951 31.5307 28.6398 31.412 28.6344 31.2861L29.2549 29.5192H34.8719L35.4924 31.2861C35.4789 31.4061 35.4201 31.5165 35.3281 31.5948C35.2361 31.673 35.1177 31.7133 34.997 31.7073L35.0149 31.7201Z" fill="#A0A0A0"/>
<path d="M15.9239 27.6657C15.9916 27.6657 16.0566 27.6388 16.1045 27.5909C16.1523 27.543 16.1792 27.4781 16.1792 27.4104V19.2401H17.821C17.891 19.2401 17.9583 19.2122 18.0078 19.1627C18.0574 19.1131 18.0852 19.0459 18.0852 18.9758C18.0852 18.9057 18.0574 18.8385 18.0078 18.7889C17.9583 18.7394 17.891 18.7115 17.821 18.7115H15.9239C15.8562 18.7115 15.7913 18.7384 15.7434 18.7863C15.6955 18.8342 15.6686 18.8992 15.6686 18.9669V27.3925C15.6661 27.4275 15.6709 27.4626 15.6827 27.4957C15.6944 27.5288 15.7128 27.5591 15.7368 27.5847C15.7607 27.6103 15.7897 27.6307 15.8219 27.6447C15.8541 27.6586 15.8888 27.6658 15.9239 27.6657Z" fill="#A0A0A0"/>
<path d="M30.1656 19.2374H31.8099V27.4077C31.8099 27.4778 31.8377 27.545 31.8873 27.5946C31.9369 27.6442 32.0041 27.672 32.0742 27.672C32.1442 27.672 32.2115 27.6442 32.261 27.5946C32.3106 27.545 32.3384 27.4778 32.3384 27.4077V18.9821C32.3384 18.9144 32.3115 18.8495 32.2636 18.8016C32.2157 18.7537 32.1508 18.7268 32.0831 18.7268H30.1656C30.0955 18.7268 30.0283 18.7546 29.9788 18.8042C29.9292 18.8538 29.9014 18.921 29.9014 18.9911C29.9014 19.0611 29.9292 19.1284 29.9788 19.1779C30.0283 19.2275 30.0955 19.2553 30.1656 19.2553V19.2374Z" fill="#A0A0A0"/>
</svg>
