<svg width="48" height="48" viewBox="0 0 48 48" fill="none" xmlns="http://www.w3.org/2000/svg">
<path d="M20.3177 15.8318L19.2145 15.1084L19.1815 13.797C19.1785 13.683 19.1116 13.5807 19.0082 13.5327C18.9047 13.4851 18.7835 13.4988 18.6944 13.5702L17.6716 14.3866L16.4103 14.0051C16.3005 13.9715 16.1814 14.0039 16.104 14.0876C16.0258 14.1712 16.0023 14.2924 16.0434 14.3992L16.5123 15.6266L15.7675 16.7001C15.7024 16.7937 15.6961 16.9163 15.751 17.0162C15.8059 17.1155 15.9139 17.1812 16.0266 17.1707L17.3416 17.1128L18.1421 18.1599C18.1994 18.2349 18.2881 18.2778 18.3805 18.2778C18.3997 18.2778 18.4192 18.276 18.4384 18.2721C18.5503 18.2502 18.6403 18.1662 18.6697 18.0562L19.0116 16.794L20.2507 16.366C20.3587 16.3285 20.4363 16.2331 20.4505 16.1198C20.4646 16.006 20.413 15.8945 20.3177 15.8318ZM18.6659 16.279C18.572 16.3114 18.5 16.3882 18.4742 16.4842L18.2498 17.3132L17.7231 16.6242C17.6661 16.5498 17.5779 16.5064 17.4847 16.5064C17.4802 16.5064 17.476 16.5064 17.4715 16.5067L16.605 16.545L17.0951 15.8386C17.1518 15.7568 17.1644 15.6524 17.129 15.56L16.8218 14.7562L17.6485 15.0063C17.7433 15.0357 17.8456 15.0153 17.9226 14.9535L18.5972 14.4155L18.6188 15.2805C18.6215 15.3788 18.6719 15.4698 18.7541 15.5237L19.4779 15.9985L18.6659 16.279Z" fill="#A0A0A0"/>
<path d="M21.8497 19.6674C21.4126 18.8086 20.8505 18.0771 20.1793 17.4934C20.0545 17.3854 19.8653 17.3977 19.7561 17.5231C19.6476 17.6482 19.6607 17.8377 19.7858 17.9463C20.3986 18.479 20.9133 19.1496 21.3149 19.9391C21.368 20.0435 21.4733 20.1032 21.5828 20.1032C21.6283 20.1032 21.6751 20.0927 21.7183 20.0708C21.8658 19.9956 21.9246 19.815 21.8497 19.6674Z" fill="#A0A0A0"/>
<path d="M32.2849 16.6995L31.5402 15.626L32.009 14.3986C32.0498 14.2921 32.0264 14.1713 31.9481 14.0873C31.8701 14.0036 31.7516 13.9709 31.6419 14.0048L30.3806 14.3863L29.3578 13.5699C29.2687 13.4988 29.1475 13.485 29.044 13.5324C28.9406 13.5804 28.8737 13.6827 28.8707 13.7967L28.8377 15.108L27.7348 15.8315C27.6394 15.8942 27.5878 16.0058 27.6019 16.1194C27.616 16.2328 27.6937 16.3282 27.8017 16.3657L29.0405 16.7937L29.3827 18.0558C29.4127 18.1659 29.5021 18.2495 29.6143 18.2717C29.6332 18.2757 29.6529 18.2774 29.6719 18.2774C29.7642 18.2774 29.853 18.2345 29.9103 18.1596L30.7108 17.1125L32.0254 17.1703C32.1385 17.1802 32.2462 17.1152 32.3014 17.0156C32.3566 16.9157 32.35 16.7934 32.2849 16.6995ZM30.5806 16.5064C30.4832 16.4992 30.3887 16.546 30.329 16.6239L29.8023 17.3129L29.5776 16.4839C29.5518 16.3882 29.4801 16.3114 29.3859 16.2787L28.5743 15.9983L29.2977 15.5235C29.3799 15.4695 29.4303 15.3789 29.433 15.2802L29.4546 14.4152L30.1291 14.9533C30.2065 15.0151 30.3082 15.0352 30.4033 15.0061L31.23 14.7559L30.9228 15.5598C30.8874 15.6525 30.9 15.7566 30.9564 15.8381L31.4465 16.5445L30.5806 16.5064Z" fill="#A0A0A0"/>
<path d="M26.4364 13.7481C26.4013 13.6386 26.3078 13.5588 26.1946 13.5417L24.8914 13.3461L24.3173 12.17C24.2675 12.0674 24.1638 12.0024 24.0498 12.0015C23.9355 11.9883 23.8314 12.0645 23.7801 12.1662L23.188 13.3362L21.8818 13.5174C21.7684 13.5329 21.6739 13.6116 21.6382 13.7204C21.6023 13.8287 21.6313 13.9486 21.7129 14.0284L22.6484 14.9462L22.4163 16.2333C22.3962 16.3458 22.4415 16.4598 22.5333 16.5275C22.6254 16.5956 22.7477 16.6055 22.8488 16.5533L24.0212 15.9502L25.1841 16.5666C25.2279 16.5899 25.2765 16.6014 25.3245 16.6014C25.3863 16.6014 25.4474 16.5824 25.4996 16.5449C25.5923 16.4783 25.6391 16.365 25.6202 16.2525L25.4075 14.9628L26.3575 14.0552C26.4403 13.976 26.4709 13.857 26.4364 13.7481ZM24.8785 14.6386C24.8068 14.7069 24.7735 14.8065 24.7897 14.9043L24.9294 15.7531L24.1631 15.3471C24.1193 15.324 24.071 15.3123 24.0227 15.3123C23.9756 15.3123 23.9288 15.3233 23.8856 15.3452L23.1142 15.7421L23.2668 14.8968C23.2845 14.7991 23.2524 14.6989 23.1816 14.6293L22.5686 14.0279L23.4258 13.9091C23.5233 13.8956 23.6079 13.8353 23.6526 13.7474L24.0431 12.9756L24.4216 13.751C24.4651 13.8398 24.5491 13.9015 24.6466 13.9162L25.5005 14.0443L24.8785 14.6386Z" fill="#A0A0A0"/>
<path d="M28.2967 17.5227C28.1875 17.3974 27.9983 17.3851 27.8735 17.493C27.2016 18.077 26.6395 18.8086 26.2025 19.6673C26.1275 19.8149 26.1863 19.9954 26.3339 20.0707C26.3774 20.0926 26.4239 20.1031 26.4695 20.1031C26.5787 20.1031 26.6842 20.0434 26.7373 19.939C27.1389 19.1496 27.6536 18.4789 28.267 17.9459C28.3921 17.8374 28.4053 17.6478 28.2967 17.5227Z" fill="#A0A0A0"/>
<path d="M36.0138 23.9662V22.8141C36.0138 21.8111 35.1976 20.9952 34.1949 20.9952H13.8578C12.8545 20.9952 12.0387 21.8114 12.0387 22.8141V23.9662C12.0387 23.9847 12.0405 24.0037 12.0441 24.0216C12.063 24.9349 12.5476 25.7346 13.2681 26.1947V31.5165H13.063C12.4769 31.5166 12 31.9935 12 32.5796V33.1893C12 33.7757 12.4766 34.2526 13.0627 34.2526H13.2691L13.5828 35.0978C13.7838 35.6374 14.3051 36.0001 14.881 36.0001H33.0142C33.5897 36.0001 34.1111 35.6374 34.3117 35.0978L34.6258 34.2526H34.9131C35.4992 34.2526 35.9761 33.7757 35.9761 33.1893V32.5796C35.9761 31.9935 35.4992 31.5166 34.9131 31.5166H34.7082V26.243C35.488 25.7835 36.0138 24.9362 36.0138 23.9662ZM33.7493 34.8888C33.6356 35.1947 33.3404 35.4002 33.0141 35.4002H14.881C14.5546 35.4002 14.2592 35.1948 14.1455 34.8892L13.9091 34.2527H33.9856L33.7493 34.8888ZM34.9136 32.1165C35.1692 32.1165 35.3767 32.324 35.3767 32.5796V33.1893C35.3767 33.4449 35.1692 33.6527 34.9136 33.6527H13.063C12.8074 33.6527 12.5999 33.4449 12.5999 33.1893V32.5796C12.5999 32.324 12.8074 32.1165 13.063 32.1165H34.9136ZM13.8677 31.5166V26.4788C14.1238 26.5621 14.3965 26.6089 14.6802 26.6089C15.6941 26.6089 16.5758 26.0324 17.0171 25.1899C17.4583 26.0327 18.3404 26.6089 19.3542 26.6089C20.368 26.6089 21.2501 26.0324 21.6914 25.1896C22.1325 26.0327 23.0147 26.6089 24.0285 26.6089C25.0423 26.6089 25.9244 26.0324 26.3656 25.1896C26.8068 26.0327 27.6889 26.6089 28.7028 26.6089C29.7166 26.6089 30.5984 26.0324 31.0396 25.1899C31.4808 26.0327 32.3629 26.6089 33.3767 26.6089C33.6308 26.6089 33.8759 26.5709 34.1086 26.5031V31.5166H13.8677ZM33.3764 26.009C32.2532 26.009 31.3392 25.0924 31.3392 23.9662C31.3392 23.8003 31.2052 23.6662 31.0393 23.6662C30.8735 23.6662 30.7394 23.8003 30.7394 23.9662C30.7394 25.0925 29.8254 26.009 28.7025 26.009C27.5792 26.009 26.6653 25.0924 26.6653 23.9662C26.6653 23.8003 26.5312 23.6662 26.3653 23.6662C26.1995 23.6662 26.0654 23.8003 26.0654 23.9662C26.0654 25.0925 25.1515 26.009 24.0282 26.009C22.9049 26.009 21.991 25.0924 21.991 23.9662C21.991 23.8003 21.8569 23.6662 21.6911 23.6662C21.5252 23.6662 21.3911 23.8003 21.3911 23.9662C21.3911 25.0925 20.4772 26.009 19.3539 26.009C18.2307 26.009 17.3167 25.0924 17.3167 23.9662C17.3167 23.8003 17.1826 23.6662 17.0168 23.6662C16.851 23.6662 16.7169 23.8003 16.7169 23.9662C16.7169 25.0925 15.8029 26.009 14.68 26.009C13.557 26.0088 12.6431 25.0924 12.6431 23.9662C12.6431 23.9482 12.6415 23.9311 12.6383 23.914V22.8141C12.6383 22.1419 13.1854 21.5951 13.8575 21.5951H34.1947C34.8668 21.5951 35.4136 22.1419 35.4136 22.8141V23.9662C35.4136 25.0925 34.4998 26.009 33.3764 26.009Z" fill="#A0A0A0"/>
<path d="M24.0363 16.8789C23.8704 16.8789 23.7363 17.013 23.7363 17.1788V19.8033C23.7363 19.9692 23.8704 20.1033 24.0363 20.1033C24.2021 20.1033 24.3362 19.9692 24.3362 19.8033V17.1788C24.3362 17.0129 24.2022 16.8789 24.0363 16.8789Z" fill="#A0A0A0"/>
</svg>
