<svg width="48" height="48" viewBox="0 0 48 48" fill="none" xmlns="http://www.w3.org/2000/svg">
<path d="M23.9991 35.9999C23.7538 35.9999 23.5547 35.8008 23.5547 35.5555V31.9537C23.5547 31.7079 23.7538 31.5093 23.9991 31.5093C24.2449 31.5093 24.4436 31.7079 24.4436 31.9537V35.5555C24.4436 35.8008 24.2449 35.9999 23.9991 35.9999Z" fill="#A0A0A0"/>
<path d="M18.4416 34.2222C18.4234 34.2222 18.4052 34.2209 18.3865 34.2186C18.143 34.1889 17.9696 33.9671 17.9994 33.7235L18.8061 27.1747C18.8363 26.9311 19.0594 26.7609 19.3016 26.788C19.5452 26.8178 19.7185 27.0395 19.6888 27.2831L18.8821 33.832C18.8545 34.0573 18.663 34.2222 18.4416 34.2222Z" fill="#A0A0A0"/>
<path d="M15.1106 25.1759C14.9324 25.1759 14.7639 25.0675 14.6959 24.8906C14.6075 24.6617 14.7217 24.4044 14.9511 24.3164L16.4297 23.7466C16.6582 23.6595 16.9159 23.7728 17.0039 24.0017C17.0924 24.2306 16.9782 24.4879 16.7488 24.5759L15.2702 25.1457C15.2177 25.1662 15.1639 25.1759 15.1106 25.1759Z" fill="#A0A0A0"/>
<path d="M32.8894 25.176C32.8361 25.176 32.7823 25.1663 32.7299 25.1463L31.2517 24.5765C31.0223 24.4885 30.9085 24.2311 30.9965 24.0023C31.085 23.7725 31.3432 23.6596 31.5712 23.7471L33.0494 24.3169C33.2788 24.4049 33.3925 24.6623 33.3045 24.8911C33.2361 25.0676 33.0676 25.176 32.8894 25.176Z" fill="#A0A0A0"/>
<path d="M29.559 34.2222C29.3377 34.2222 29.1461 34.0573 29.1186 33.832L28.3119 27.2831C28.2822 27.0395 28.455 26.8178 28.6986 26.788C28.9426 26.7564 29.1639 26.9311 29.1937 27.1747L29.9999 33.7235C30.0297 33.9671 29.8568 34.1889 29.6133 34.2186C29.5955 34.2209 29.5768 34.2222 29.559 34.2222Z" fill="#A0A0A0"/>
<path d="M23.9997 30.176C23.8633 30.176 23.7295 30.1133 23.6419 29.996C22.8402 28.9124 21.9046 27.9898 20.9144 27.0129C20.5313 26.6347 20.1473 26.256 19.7722 25.868C18.7322 24.7929 17.3082 23.3209 16.7419 21.4818C16.5624 20.8982 16.4624 20.3054 16.4455 19.7187C16.4384 19.4734 16.6313 19.2689 16.8771 19.2618C17.1184 19.2454 17.3268 19.448 17.3339 19.6934C17.3491 20.2067 17.4331 20.7062 17.5913 21.2205C18.0571 22.7329 19.1437 23.9405 20.4108 25.2502C20.7815 25.6333 21.1602 26.0071 21.5388 26.3804C22.5099 27.3382 23.5135 28.3284 24.3566 29.4676C24.5028 29.6644 24.461 29.9427 24.2637 30.0889C24.1842 30.1471 24.0913 30.176 23.9997 30.176Z" fill="#A0A0A0"/>
<path d="M23.9989 30.176C23.9073 30.176 23.8144 30.1476 23.7349 30.0889C23.5376 29.9427 23.4958 29.6645 23.642 29.4676C24.4855 28.3276 25.4909 27.3356 26.4633 26.3769C26.8407 26.0049 27.2184 25.632 27.5878 25.2503C28.8531 23.9423 29.9384 22.736 30.4078 21.22C30.5633 20.7169 30.6495 20.2032 30.6642 19.6934C30.6718 19.4476 30.8984 19.252 31.1215 19.2618C31.3669 19.2694 31.5598 19.4743 31.5531 19.7192C31.5358 20.3089 31.4358 20.9023 31.2566 21.4823C30.7304 23.1836 29.5233 24.528 28.2269 25.868C27.8522 26.2551 27.47 26.6329 27.0878 27.0094C26.0962 27.9876 25.1593 28.9111 24.3567 29.996C24.2691 30.1134 24.1353 30.176 23.9989 30.176Z" fill="#A0A0A0"/>
<path d="M31.1098 20.1502C31.1067 20.1502 31.1036 20.1502 31.1005 20.1502C30.8552 20.1449 30.6605 19.9418 30.6654 19.6964C30.7032 17.92 30.024 16.224 28.7529 14.9213C27.4818 13.6178 25.8023 12.896 24.0241 12.8889C22.2463 12.8622 20.5547 13.5942 19.2743 14.8956C17.989 16.2013 17.3005 17.9062 17.3356 19.6973C17.3405 19.9427 17.1454 20.1458 16.9001 20.1507C16.6623 20.1613 16.4516 19.9604 16.4467 19.7151C16.4072 17.6831 17.1863 15.7498 18.641 14.2724C20.0907 12.7987 22.0258 11.9978 24.0276 12C26.0463 12.008 27.9503 12.8244 29.3894 14.3004C30.828 15.7756 31.5969 17.6987 31.5543 19.7151C31.5489 19.9569 31.3512 20.1502 31.1098 20.1502Z" fill="#A0A0A0"/>
<path d="M24.1064 21.5449C22.6038 21.5449 21.334 20.2751 21.334 18.7724C21.334 17.2693 22.6038 16 24.1064 16C25.6095 16 26.8789 17.2693 26.8789 18.7724C26.8789 20.2751 25.6095 21.5449 24.1064 21.5449ZM24.1064 16.8889C23.0855 16.8889 22.2229 17.7511 22.2229 18.7724C22.2229 19.7933 23.0855 20.656 24.1064 20.656C25.1278 20.656 25.99 19.7933 25.99 18.7724C25.99 17.7511 25.1278 16.8889 24.1064 16.8889Z" fill="#A0A0A0"/>
<path d="M12.4442 35.9999C12.2527 35.9999 12.0753 35.875 12.0185 35.6817C11.9487 35.4466 12.0829 35.199 12.3184 35.1293L18.3153 33.3515C18.4011 33.3262 18.4922 33.327 18.5771 33.3542L23.9998 35.0888L29.4229 33.3542C29.5077 33.327 29.5993 33.3262 29.6846 33.3515L35.6815 35.1293C35.9166 35.199 36.0513 35.4466 35.9815 35.6817C35.9117 35.9168 35.6646 36.051 35.4291 35.9817L29.5633 34.2426L24.1353 35.9786C24.0469 36.0066 23.9531 36.0066 23.8646 35.9786L18.4362 34.2426L12.5704 35.9817C12.5282 35.9937 12.486 35.9999 12.4442 35.9999Z" fill="#A0A0A0"/>
<path d="M35.5562 36C35.3567 36 35.1753 35.8644 35.1251 35.6618L32.4585 24.8378C32.3994 24.5996 32.5451 24.3587 32.7833 24.3C33.022 24.2431 33.2625 24.3867 33.3211 24.6249L35.9878 35.4489C36.0469 35.6871 35.9011 35.928 35.6629 35.9867C35.6273 35.9956 35.5913 36 35.5562 36Z" fill="#A0A0A0"/>
<path d="M12.445 35.9999C12.4094 35.9999 12.3739 35.9955 12.3383 35.9871C12.1001 35.9284 11.9543 35.6875 12.013 35.4493L14.6796 24.6253C14.7383 24.3871 14.9801 24.2431 15.2174 24.3004C15.4556 24.3591 15.6014 24.6 15.5427 24.8382L12.8761 35.6622C12.8263 35.8644 12.6445 35.9999 12.445 35.9999Z" fill="#A0A0A0"/>
</svg>
