<svg width="48" height="48" viewBox="0 0 48 48" fill="none" xmlns="http://www.w3.org/2000/svg">
<path d="M19.4819 16.2867C19.5569 16.2117 19.599 16.11 19.599 16.0039C19.599 15.7829 19.4199 15.6039 19.1991 15.6039C18.5366 15.6046 17.9997 16.1415 17.999 16.8039C17.999 17.0248 18.1781 17.2039 18.399 17.2039C18.6199 17.2039 18.799 17.0248 18.799 16.8039C18.7993 16.5831 18.9782 16.4042 19.199 16.4039C19.3051 16.4039 19.4069 16.3618 19.4819 16.2867Z" fill="#A0A0A0"/>
<path d="M35.822 18.6963C35.6761 18.5095 35.4525 18.4002 35.2155 18.3998L34.3515 18.4062L33.4548 17.4501C33.2748 17.2555 33.007 17.1676 32.7467 17.2177L29.2387 17.8978C28.7131 18.0154 28.356 18.5041 28.4037 19.0405C28.4513 19.5769 28.889 19.995 29.427 20.0181H29.6793C29.745 20.0192 29.8073 20.0476 29.851 20.0967C29.9054 20.157 29.9352 20.2356 29.9344 20.3168L29.9506 20.8551H29.8279C29.2383 20.8682 28.7709 21.3563 28.7831 21.9459C28.7767 22.4343 29.0987 22.8662 29.5685 22.9995L30.1935 23.1661C30.2873 23.1911 30.384 23.2038 30.481 23.2037C30.7983 23.2026 31.1009 23.0702 31.3171 22.8379L32.1261 21.9752L32.1396 22.0412C32.1891 22.2915 32.354 22.5037 32.5843 22.6133C32.8044 22.7165 33.0605 22.7081 33.2734 22.5908L33.9119 22.242C34.1377 22.1168 34.3174 21.9224 34.4242 21.6873L34.7957 20.8365H35.0237C35.3908 20.8332 35.7069 20.5764 35.7854 20.2177L35.9772 19.3996C36.0363 19.1537 35.9791 18.8944 35.822 18.6963ZM35.0237 20.0366H34.7958C34.4892 20.0396 34.2124 20.2207 34.0868 20.5005L33.6966 21.355C33.6619 21.4331 33.6029 21.498 33.5284 21.5401L32.9237 21.8823L32.8832 21.6833C32.877 21.6522 32.867 21.622 32.8536 21.5932C32.7445 21.3561 32.5249 21.1886 32.2674 21.1462C32.0148 21.1067 31.759 21.1954 31.585 21.3829L30.7338 22.2907C30.6502 22.3845 30.5213 22.424 30.3996 22.393L29.7746 22.2264C29.6548 22.1849 29.5767 22.0691 29.5832 21.9424C29.5726 21.7959 29.6816 21.6679 29.828 21.6551H29.9506C30.3902 21.6475 30.7408 21.2856 30.7344 20.8459V20.3168C30.736 20.032 30.6287 19.7574 30.4344 19.5492C30.239 19.3396 29.9659 19.2198 29.6794 19.2181H29.427C29.2904 19.2055 29.1892 19.0857 29.1995 18.9489C29.1935 18.8266 29.2729 18.7163 29.3909 18.6833L32.8712 17.9974L33.7678 18.9533C33.9135 19.1095 34.1174 19.1987 34.3311 19.1997L35.1985 19.2169L35.0237 20.0366Z" fill="#A0A0A0"/>
<path d="M27.3691 22.8814C27.1403 22.5765 26.7815 22.3969 26.4003 22.3964H25.9962C25.6152 22.3968 25.2566 22.5763 25.0278 22.881L24.39 23.72L24.0156 23.1493L24.2115 22.6614C24.3752 22.2553 24.3069 21.7924 24.0329 21.4507C23.7588 21.1091 23.3217 20.942 22.8897 21.0137L22.0065 21.1583L20.8723 20.5932C20.7253 20.5181 20.5641 20.4748 20.3992 20.4661V19.33C21.5823 18.7688 22.2185 17.4625 21.9309 16.185C21.6433 14.9076 20.5087 14 19.1992 14C17.8897 14 16.7551 14.9076 16.4675 16.185C16.1798 17.4625 16.816 18.7688 17.9992 19.33V20.7758L17.5108 20.5307C17.2704 20.4107 16.9967 20.3746 16.7333 20.4282L15.0288 20.7698C14.9564 20.7854 14.8867 20.8111 14.8215 20.8462L12.5488 22.0405C12.0791 22.2859 11.875 22.8497 12.0787 23.339C12.087 23.3591 12.0971 23.3785 12.1088 23.3968C12.2994 23.7766 12.7055 23.9985 13.1282 23.9538L15.5565 23.6819C15.7743 23.6575 15.9724 23.8096 16.0052 24.0263L16.2056 25.2279C16.2396 25.4326 16.1943 25.6425 16.0788 25.815L15.0931 27.2974C14.7782 27.7782 14.8413 28.4134 15.2444 28.8229L16.3495 29.9307L16.35 29.9315L17.8734 32.982C17.959 33.1486 18.0993 33.2808 18.2707 33.3564L20.5673 34.695C20.6908 34.7663 20.831 34.8039 20.9737 34.8038C21.2747 34.8041 21.5505 34.6357 21.6878 34.3679L22.1198 33.5278C22.149 33.4712 22.1641 33.4085 22.1642 33.3448C22.1644 33.0488 22.001 32.7769 21.7396 32.6382L21.1322 32.2848V31.7248C21.1316 31.2788 20.7702 30.9173 20.3242 30.9168L20.0279 30.9112L20.1564 30.4039C20.2005 30.2212 20.3641 30.0926 20.552 30.0927H22.2961C22.7211 30.0913 23.1147 29.869 23.3354 29.5058L24.1577 28.1289C24.2098 28.0445 24.2893 27.9807 24.3829 27.9479L26.0208 27.4006C26.2426 27.3282 26.4221 27.1631 26.5127 26.9481C26.6034 26.7331 26.5962 26.4894 26.4931 26.28L26.4642 26.0841C26.4418 25.9277 26.5104 25.7721 26.6412 25.6834L27.3568 25.1972C27.6694 25.0312 27.8936 24.7367 27.9706 24.3913C28.0476 24.0459 27.9695 23.6841 27.7571 23.4011L27.3691 22.8814ZM17.1991 16.8039C17.1991 15.6993 18.0945 14.8038 19.1992 14.8038C20.3038 14.8038 21.1992 15.6993 21.1992 16.8039C21.1992 17.9085 20.3038 18.804 19.1992 18.804C18.0951 18.8026 17.2004 17.908 17.1991 16.8039ZM19.5992 19.6039V24.4041C19.5992 24.625 19.4201 24.804 19.1992 24.804C18.9783 24.804 18.7992 24.625 18.7992 24.4041V19.6039H19.5992ZM27.1881 24.2242C27.1613 24.3418 27.0828 24.4409 26.9746 24.4941C26.9583 24.5022 26.9426 24.5114 26.9275 24.5217L26.1933 25.0205C25.8091 25.2818 25.6071 25.7389 25.6726 26.1988L25.7126 26.4707C25.7188 26.5311 25.7383 26.5892 25.7695 26.6413L24.1247 27.1909C23.8531 27.285 23.6227 27.4705 23.4728 27.7157L22.6499 29.0935C22.5746 29.2168 22.4407 29.2922 22.2962 29.2927H20.552C19.9965 29.2916 19.5124 29.6707 19.3803 30.2103L19.252 30.7158C19.1923 30.9568 19.2469 31.212 19.4 31.4075C19.5531 31.603 19.7877 31.7171 20.0361 31.717L20.3322 31.725V32.285C20.3304 32.5824 20.494 32.8563 20.7568 32.9957L21.325 33.3223L20.9695 34.0036L18.6495 32.6514C18.6292 32.6386 18.6079 32.6275 18.5859 32.6182L17.08 29.6058C17.0442 29.5145 16.9878 29.4326 16.9153 29.3666L15.8108 28.258C15.6742 28.1179 15.6536 27.9017 15.7612 27.7383L16.744 26.2597C16.9725 25.9174 17.0621 25.5009 16.9946 25.0948L16.795 23.8979C16.6944 23.2599 16.1092 22.8143 15.4674 22.8871L13.042 23.1587C12.9485 23.1699 12.8588 23.1183 12.8215 23.0319C12.817 23.021 12.8119 23.0104 12.8064 23.0001C12.7795 22.901 12.8261 22.7966 12.9179 22.7506L15.1943 21.5526L16.8924 21.2124C16.9804 21.1944 17.0718 21.2062 17.1524 21.246L17.9993 21.6711V24.4042C17.9993 25.067 18.5365 25.6043 19.1993 25.6043C19.8621 25.6043 20.3993 25.067 20.3993 24.4042V21.2776C20.4374 21.2817 20.4747 21.2915 20.5099 21.3065L21.6418 21.8704C21.7961 21.9492 21.9713 21.9775 22.1426 21.9511L23.0219 21.803C23.1679 21.7769 23.3165 21.8335 23.408 21.9503C23.5032 22.0662 23.5266 22.2252 23.4689 22.3636L23.2697 22.8601C23.1742 23.1042 23.2044 23.3795 23.3504 23.5971L23.7244 24.1639C23.8711 24.3815 24.1139 24.5148 24.3762 24.5217C24.6368 24.5293 24.8848 24.4093 25.0406 24.2002L25.669 23.3598C25.7464 23.257 25.8676 23.1966 25.9963 23.1967H26.4004C26.5291 23.1966 26.6504 23.2571 26.7278 23.36L27.1168 23.8811C27.1905 23.9789 27.2167 24.1048 27.1881 24.2242Z" fill="#A0A0A0"/>
</svg>
