<svg width="48" height="48" viewBox="0 0 48 48" fill="none" xmlns="http://www.w3.org/2000/svg">
<path d="M19.9999 23.3617H27.2334C27.4591 23.3614 27.6754 23.2717 27.8349 23.1121C27.9945 22.9526 28.0842 22.7362 28.0845 22.5106L28.0844 21.2442C28.0888 20.9727 28.0613 20.7017 28.0024 20.4366C27.896 20.0594 27.6465 19.7386 27.3071 19.5427L25.1945 18.313C25.1026 18.2595 24.9939 18.2424 24.89 18.265C24.786 18.2876 24.6943 18.3484 24.633 18.4353L23.6155 19.8755L22.6006 18.4356C22.5393 18.3486 22.4476 18.2877 22.3435 18.265C22.2395 18.2423 22.1308 18.2595 22.0388 18.313L19.9407 19.5346C19.5945 19.7301 19.3394 20.0543 19.2308 20.4368C19.1724 20.6993 19.1449 20.9678 19.1488 21.2367V22.5106C19.149 22.7362 19.2388 22.9526 19.3983 23.1121C19.5579 23.2717 19.7742 23.3614 19.9999 23.3617ZM20.0543 20.6514C20.1052 20.4945 20.212 20.3617 20.3542 20.2782L22.1297 19.2448L23.2546 20.8409C23.2939 20.8966 23.346 20.9421 23.4065 20.9735C23.467 21.0048 23.5342 21.0212 23.6024 21.0212H23.6278C23.6959 21.0212 23.763 21.0049 23.8234 20.9736C23.8839 20.9423 23.936 20.8969 23.9753 20.8413L25.1033 19.2445L26.8936 20.2863C27.0291 20.3702 27.1302 20.4996 27.1789 20.6514C27.2185 20.8439 27.2368 21.0402 27.2334 21.2367L27.234 22.5106H19.9999L19.9998 21.2296C19.9968 21.0355 20.0151 20.8416 20.0543 20.6514Z" fill="#A0A0A0"/>
<path d="M23.6162 18.2553C24.0675 18.2548 24.5001 18.0753 24.8192 17.7562C25.1383 17.4371 25.3178 17.0045 25.3183 16.5532V15.7021C25.3183 15.2507 25.139 14.8178 24.8198 14.4985C24.5005 14.1793 24.0676 14 23.6162 14C23.1648 14 22.7318 14.1793 22.4126 14.4985C22.0934 14.8178 21.9141 15.2507 21.9141 15.7021V16.5532C21.9146 17.0045 22.0941 17.4371 22.4132 17.7562C22.7323 18.0753 23.1649 18.2548 23.6162 18.2553ZM22.7651 15.7021C22.7651 15.4764 22.8548 15.2599 23.0144 15.1003C23.174 14.9407 23.3905 14.8511 23.6162 14.8511C23.8419 14.8511 24.0584 14.9407 24.218 15.1003C24.3776 15.2599 24.4672 15.4764 24.4672 15.7021V16.5532C24.4672 16.7789 24.3776 16.9954 24.218 17.155C24.0584 17.3146 23.8419 17.4043 23.6162 17.4043C23.3905 17.4043 23.174 17.3146 23.0144 17.155C22.8548 16.9954 22.7651 16.7789 22.7651 16.5532V15.7021Z" fill="#A0A0A0"/>
<path d="M10.0004 33.149C10.0006 33.3746 10.0903 33.5909 10.2499 33.7505C10.4095 33.9101 10.6258 33.9998 10.8514 34H18.085C18.3106 33.9998 18.527 33.9101 18.6865 33.7505C18.8461 33.5909 18.9358 33.3746 18.936 33.149L18.9359 31.8826C18.9403 31.6111 18.9128 31.3401 18.854 31.0751C18.7476 30.6978 18.4981 30.377 18.1586 30.1811L16.0461 28.9514C15.9541 28.8979 15.8455 28.8808 15.7416 28.9034C15.6376 28.926 15.5459 28.9867 15.4845 29.0736L14.4671 30.5139L13.4522 29.074C13.3909 28.9869 13.2991 28.926 13.1951 28.9033C13.0911 28.8806 12.9823 28.8978 12.8903 28.9514L10.7923 30.1729C10.4461 30.3684 10.191 30.6926 10.0824 31.0751C10.024 31.3377 9.99646 31.6061 10.0004 31.8751V33.149ZM10.9059 31.29C10.9568 31.133 11.0635 31.0002 11.2058 30.9166L12.9812 29.8831L14.1062 31.4793C14.1454 31.535 14.1976 31.5805 14.2581 31.6118C14.3186 31.6432 14.3858 31.6596 14.454 31.6596H14.4793C14.5474 31.6596 14.6145 31.6433 14.675 31.612C14.7355 31.5807 14.7875 31.5353 14.8268 31.4797L15.9549 29.8829L17.7452 30.9247C17.8807 31.0087 17.9819 31.1382 18.0306 31.29C18.0701 31.4824 18.0884 31.6786 18.085 31.8751L18.0855 33.149H10.8514L10.8513 31.868C10.8483 31.6739 10.8666 31.4801 10.9059 31.29Z" fill="#A0A0A0"/>
<path d="M12.7656 26.3404V27.1915C12.7656 27.6429 12.945 28.0759 13.2642 28.3951C13.5834 28.7143 14.0163 28.8936 14.4677 28.8936C14.9192 28.8936 15.3521 28.7143 15.6713 28.3951C15.9905 28.0759 16.1699 27.6429 16.1699 27.1915V26.3404C16.1699 25.889 15.9905 25.4561 15.6713 25.1368C15.3521 24.8176 14.9192 24.6383 14.4677 24.6383C14.0163 24.6383 13.5834 24.8176 13.2642 25.1368C12.945 25.4561 12.7656 25.889 12.7656 26.3404ZM15.3188 26.3404V27.1915C15.3188 27.4172 15.2291 27.6337 15.0695 27.7933C14.9099 27.9529 14.6935 28.0426 14.4677 28.0426C14.242 28.0426 14.0256 27.9529 13.866 27.7933C13.7063 27.6337 13.6167 27.4172 13.6167 27.1915V26.3404C13.6167 26.1147 13.7063 25.8982 13.866 25.7386C14.0256 25.579 14.242 25.4894 14.4677 25.4894C14.6935 25.4894 14.9099 25.579 15.0695 25.7386C15.2291 25.8982 15.3188 26.1147 15.3188 26.3404Z" fill="#A0A0A0"/>
<path d="M36.4575 30.1811L34.3449 28.9514C34.253 28.8979 34.1443 28.8808 34.0404 28.9034C33.9365 28.926 33.8448 28.9867 33.7834 29.0736L32.7659 30.5139L31.751 29.074C31.6897 28.9869 31.598 28.926 31.494 28.9033C31.3899 28.8806 31.2812 28.8978 31.1892 28.9514L29.0911 30.1729C28.7449 30.3684 28.4898 30.6926 28.3813 31.0751C28.3228 31.3377 28.2953 31.6061 28.2992 31.8751V33.149C28.2994 33.3746 28.3892 33.5909 28.5487 33.7505C28.7083 33.9101 28.9246 33.9998 29.1502 34H36.3838C36.6095 33.9998 36.8258 33.9101 36.9853 33.7505C37.1449 33.5909 37.2346 33.3746 37.2349 33.149L37.2348 31.8826C37.2392 31.6111 37.2117 31.3401 37.1528 31.0751C37.0465 30.6978 36.797 30.377 36.4575 30.1811ZM29.1502 33.149L29.1501 31.868C29.1472 31.6739 29.1655 31.4801 29.2047 31.29C29.2556 31.133 29.3623 31.0002 29.5046 30.9166L31.2801 29.8831L32.405 31.4793C32.4443 31.535 32.4964 31.5805 32.5569 31.6118C32.6174 31.6432 32.6846 31.6596 32.7528 31.6596H32.7782C32.8462 31.6596 32.9134 31.6433 32.9738 31.612C33.0343 31.5807 33.0864 31.5353 33.1257 31.4797L34.2537 29.8829L36.044 30.9247C36.1795 31.0087 36.2807 31.1382 36.3294 31.29C36.369 31.4824 36.3872 31.6786 36.3838 31.8751L36.3843 33.149H29.1502Z" fill="#A0A0A0"/>
<path d="M32.7666 28.8936C33.2178 28.8931 33.6505 28.7136 33.9696 28.3945C34.2887 28.0754 34.4682 27.6428 34.4687 27.1915V26.3404C34.4687 25.889 34.2894 25.4561 33.9701 25.1368C33.6509 24.8176 33.218 24.6383 32.7666 24.6383C32.3151 24.6383 31.8822 24.8176 31.563 25.1368C31.2438 25.4561 31.0645 25.889 31.0645 26.3404V27.1915C31.065 27.6428 31.2445 28.0754 31.5636 28.3945C31.8827 28.7136 32.3153 28.8931 32.7666 28.8936ZM31.9155 26.3404C31.9155 26.1147 32.0052 25.8982 32.1648 25.7386C32.3244 25.579 32.5409 25.4894 32.7666 25.4894C32.9923 25.4894 33.2088 25.579 33.3684 25.7386C33.528 25.8982 33.6176 26.1147 33.6176 26.3404V27.1915C33.6176 27.4172 33.528 27.6337 33.3684 27.7933C33.2088 27.9529 32.9923 28.0426 32.7666 28.0426C32.5409 28.0426 32.3244 27.9529 32.1648 27.7933C32.0052 27.6337 31.9155 27.4172 31.9155 27.1915V26.3404Z" fill="#A0A0A0"/>
<path d="M20.3153 30.8727C20.3888 30.9584 20.4933 31.0113 20.6058 31.02C20.7183 31.0286 20.8297 30.9923 20.9154 30.9189L23.6171 28.6029L26.3189 30.9189C26.4046 30.9921 26.5158 31.0283 26.6282 31.0196C26.7406 31.0108 26.845 30.9579 26.9184 30.8723C26.9917 30.7867 27.0282 30.6755 27.0196 30.563C27.0111 30.4506 26.9583 30.3462 26.8728 30.2727L24.0426 27.8468V25.0638C24.0426 24.951 23.9978 24.8427 23.918 24.7629C23.8382 24.6831 23.73 24.6383 23.6171 24.6383C23.5043 24.6383 23.396 24.6831 23.3162 24.7629C23.2364 24.8427 23.1916 24.951 23.1916 25.0638V27.8468L20.3614 30.2727C20.2758 30.3461 20.2228 30.4506 20.2141 30.5631C20.2055 30.6757 20.2419 30.787 20.3153 30.8727Z" fill="#A0A0A0"/>
</svg>
