<svg width="48" height="48" viewBox="0 0 48 48" fill="none" xmlns="http://www.w3.org/2000/svg">
<path d="M31.6311 26.7579L27.3747 29.2286C27.1691 29.3479 26.9601 29.4333 26.7425 29.4858C26.8211 29.3557 26.8832 29.2096 26.9264 29.0488C27.1453 28.2347 26.6599 27.3847 25.8213 27.1138C25.8048 27.1085 25.7878 27.1042 25.7707 27.1011C24.548 26.8813 23.341 26.4465 22.3711 26.097C22.0341 25.9756 21.7157 25.8609 21.445 25.7734C20.3518 25.4199 19.3643 25.857 18.5426 26.3311L15.3841 28.1536L15.0902 27.6361C14.8149 27.1512 14.1951 26.9801 13.7086 27.2544L12.5143 27.928C12.0278 28.2024 11.856 28.8201 12.1313 29.3049L15.6424 35.4875C15.7754 35.7217 15.9926 35.8905 16.2541 35.9627C16.3445 35.9877 16.4363 36 16.5275 36C16.7 36 16.8702 35.9558 17.0239 35.869L18.2182 35.1954C18.7047 34.9211 18.8765 34.3034 18.6012 33.8186L18.2438 33.1892L18.9542 32.7804L24.402 34.2352C24.7108 34.3176 25.0139 34.3588 25.3105 34.3588C25.9017 34.3588 26.467 34.1951 26.9989 33.8687L34.7234 29.1286C35.4317 28.6941 35.6566 27.5991 35.1952 26.8313C34.9713 26.4589 34.0526 25.3526 31.6311 26.7579ZM17.8369 34.5241L16.6427 35.1977C16.5876 35.2287 16.5231 35.2364 16.4609 35.2192C16.3987 35.202 16.3474 35.1623 16.3161 35.1074L12.805 28.9249C12.7411 28.8122 12.7825 28.6632 12.8956 28.5995L14.0898 27.9259C14.126 27.9055 14.1659 27.8959 14.2055 27.8959C14.2898 27.8959 14.3728 27.9395 14.4164 28.0161L17.9275 34.1986C17.9914 34.3113 17.95 34.4603 17.8369 34.5241ZM25.6109 30.2723C26.4048 30.3988 27.1092 30.2755 27.7643 29.8953L32.0208 27.4247C33.241 26.7164 34.1795 26.6429 34.5311 27.2279C34.7731 27.6307 34.6653 28.2584 34.3175 28.4718L26.5931 33.2119C25.9828 33.5863 25.3132 33.6799 24.6025 33.4901L18.9997 31.994C18.9006 31.9675 18.7949 31.9813 18.706 32.0326L17.8625 32.5179L15.7654 28.8251L18.9305 26.9989C19.6385 26.5904 20.4042 26.2481 21.2061 26.5074C21.4647 26.5909 21.7627 26.6984 22.1079 26.8227C23.0979 27.1794 24.3283 27.6227 25.6052 27.8554C26.0449 28.0088 26.2908 28.432 26.1786 28.8492C26.0311 29.398 25.5717 29.4663 25.206 29.4246C24.5795 29.2962 23.9839 29.1268 23.3537 28.9475C23.0548 28.8623 22.7457 28.7744 22.4279 28.6895C22.2216 28.6345 22.0092 28.7566 21.9538 28.9623C21.8985 29.1681 22.021 29.3796 22.2276 29.4348C22.5392 29.518 22.8452 29.605 23.1411 29.6893C23.791 29.8743 24.4049 30.049 25.0662 30.1837M14.4317 29.1118C14.4658 29.344 14.3045 29.5598 14.0715 29.5937C13.8385 29.6277 13.622 29.4669 13.5879 29.2347C13.5539 29.0025 13.7151 28.7867 13.9482 28.7528C14.1811 28.7188 14.3977 28.8796 14.4317 29.1118ZM24.0204 22.5266L24.2987 22.4523L24.9201 24.7632C25.11 25.4696 25.7534 25.9366 26.4546 25.9366C26.5903 25.9366 26.7282 25.9191 26.8654 25.8825L27.2715 25.774C27.478 25.7189 27.6005 25.5074 27.5452 25.3016L26.6346 21.9148C28.4049 21.8419 30.0906 22.311 31.8012 22.8437C31.9072 22.8767 32.0146 22.8928 32.1206 22.8928C32.3858 22.8928 32.6418 22.7915 32.8423 22.5997C33.123 22.3313 33.2304 21.9476 33.1297 21.5731L32.5266 19.3298C32.8241 19.1852 33.0718 18.956 33.241 18.664C33.4653 18.277 33.5248 17.8261 33.4087 17.3944C33.2927 16.9628 33.0149 16.602 32.6265 16.3786C32.3336 16.2101 32.0042 16.1351 31.6738 16.1581L31.0336 13.777C30.9359 13.4137 30.6602 13.1374 30.2963 13.0381C29.9323 12.9388 29.5538 13.0363 29.284 13.2992C29.0848 13.4933 28.8854 13.692 28.6743 13.9025C27.5638 15.0093 26.3062 16.2627 24.8687 16.9909L22.6886 17.573C22.027 17.7496 21.473 18.1744 21.1285 18.7691C20.784 19.3637 20.6919 20.0542 20.8692 20.7134C21.2363 22.0791 22.65 22.8926 24.0204 22.5266ZM26.6649 25.1372C26.2313 25.253 25.784 24.9956 25.6678 24.5635L25.0465 22.2526L25.8651 22.034L26.6972 25.1286L26.6649 25.1372ZM26.4297 21.1528L25.4613 17.5508C26.6792 16.8818 27.7441 15.905 28.7031 14.9624L30.5036 21.6589C29.361 21.3538 28.2093 21.135 27.0076 21.135C26.8164 21.135 26.6237 21.1412 26.4297 21.1528ZM32.2394 17.0468C32.4487 17.1671 32.5983 17.3615 32.6609 17.5941C32.7234 17.8267 32.6913 18.0697 32.5705 18.2782C32.506 18.3896 32.4198 18.4833 32.3186 18.5566L31.8816 16.9313C32.0062 16.9443 32.1278 16.9825 32.2394 17.0468ZM30.0917 13.7822C30.1932 13.8098 30.2584 13.8753 30.2857 13.9766L32.3818 21.7727C32.4095 21.8758 32.3834 21.9692 32.3062 22.043C32.229 22.1168 32.1342 22.139 32.0321 22.1072C31.8116 22.0386 31.5914 21.9711 31.3713 21.9054L29.3356 14.3343C29.5034 14.1671 29.665 14.0067 29.8251 13.8508C29.9004 13.7775 29.9901 13.7544 30.0917 13.7822ZM21.7989 19.1547C22.04 18.7385 22.4271 18.4415 22.8889 18.3182L24.7337 17.8256L25.6647 21.2887L23.82 21.7813C23.6646 21.8228 23.5085 21.8426 23.3549 21.8426C22.5608 21.8425 21.832 21.3136 21.6169 20.5136C21.4932 20.0535 21.5578 19.5709 21.7989 19.1547ZM32.9784 14.9526L33.4341 14.1659C33.5409 13.9814 33.7777 13.9183 33.9629 14.0247C34.148 14.1312 34.2114 14.3672 34.1045 14.5517L33.6488 15.3383C33.5771 15.4621 33.447 15.5313 33.3132 15.5313C33.2475 15.5313 33.181 15.5146 33.12 15.4795C32.9349 15.373 32.8715 15.1371 32.9784 14.9526ZM35.713 17.1785L34.8326 17.4136C34.7991 17.4226 34.7653 17.4268 34.7322 17.4268C34.5613 17.4268 34.4048 17.3132 34.3585 17.1408C34.3032 16.935 34.4257 16.7235 34.6322 16.6683L35.5126 16.4332C35.7192 16.3782 35.9314 16.5002 35.9867 16.706C36.042 16.9118 35.9195 17.1233 35.713 17.1785ZM35.4708 20.0224C35.3991 20.1461 35.269 20.2153 35.1352 20.2153C35.0695 20.2153 35.0029 20.1986 34.942 20.1636L34.1527 19.7094C33.9676 19.6029 33.9041 19.3669 34.011 19.1824C34.1179 18.9979 34.3546 18.9347 34.5398 19.0412L35.3291 19.4954C35.5142 19.6019 35.5777 19.8378 35.4708 20.0224Z" fill="#A0A0A0"/>
</svg>
