<svg width="48" height="48" viewBox="0 0 48 48" fill="none" xmlns="http://www.w3.org/2000/svg">
<path d="M12.9512 27.8092C12.9509 28.299 13.096 28.778 13.368 29.1854C13.64 29.5928 14.0267 29.9104 14.4792 30.098C14.9317 30.2857 15.4297 30.3349 15.9102 30.2394C16.3907 30.144 16.8321 29.9082 17.1785 29.5619C17.525 29.2156 17.761 28.7743 17.8566 28.2939C17.9523 27.8134 17.9033 27.3154 17.7159 26.8628C17.5285 26.4102 17.2111 26.0234 16.8038 25.7512C16.3965 25.479 15.9176 25.3337 15.4277 25.3337C14.7713 25.3343 14.1419 25.5953 13.6776 26.0594C13.2133 26.5234 12.9521 27.1527 12.9512 27.8092ZM16.7615 27.8092C16.7617 28.073 16.6837 28.331 16.5372 28.5505C16.3908 28.7699 16.1826 28.9411 15.9389 29.0422C15.6952 29.1433 15.427 29.1699 15.1683 29.1185C14.9095 29.0672 14.6717 28.9403 14.4851 28.7538C14.2984 28.5673 14.1713 28.3297 14.1197 28.0709C14.0682 27.8122 14.0945 27.544 14.1954 27.3002C14.2964 27.0564 14.4673 26.848 14.6867 26.7014C14.906 26.5548 15.1639 26.4766 15.4277 26.4766C15.7812 26.4769 16.1201 26.6174 16.3701 26.8672C16.6201 27.117 16.7609 27.4557 16.7615 27.8092Z" fill="#A0A0A0"/>
<path d="M26.8569 26.2857C26.8569 25.7206 26.6893 25.1682 26.3754 24.6984C26.0614 24.2285 25.6152 23.8623 25.0931 23.6461C24.571 23.4298 23.9966 23.3732 23.4423 23.4835C22.8881 23.5937 22.379 23.8658 21.9794 24.2654C21.5798 24.665 21.3077 25.1741 21.1975 25.7283C21.0872 26.2826 21.1438 26.857 21.3601 27.3791C21.5763 27.9012 21.9425 28.3474 22.4124 28.6614C22.8822 28.9753 23.4346 29.1429 23.9997 29.1429C24.7575 29.1429 25.4842 28.8419 26.02 28.306C26.5558 27.7702 26.8569 27.0435 26.8569 26.2857ZM22.2854 26.2857C22.2854 25.9467 22.386 25.6152 22.5743 25.3333C22.7627 25.0514 23.0304 24.8317 23.3437 24.7019C23.6569 24.5722 24.0016 24.5382 24.3342 24.6044C24.6667 24.6705 24.9722 24.8338 25.2119 25.0735C25.4517 25.3133 25.6149 25.6188 25.6811 25.9513C25.7472 26.2838 25.7133 26.6285 25.5835 26.9418C25.4538 27.255 25.234 27.5227 24.9521 27.7111C24.6702 27.8995 24.3388 28 23.9997 28C23.5451 28 23.109 27.8194 22.7875 27.4979C22.466 27.1764 22.2854 26.7404 22.2854 26.2857Z" fill="#A0A0A0"/>
<path d="M32.5723 25.3337C32.0824 25.3337 31.6035 25.479 31.1962 25.7512C30.789 26.0234 30.4715 26.4102 30.2841 26.8628C30.0967 27.3154 30.0477 27.8134 30.1434 28.2939C30.239 28.7743 30.475 29.2156 30.8215 29.5619C31.1679 29.9082 31.6093 30.144 32.0898 30.2394C32.5703 30.3349 33.0683 30.2857 33.5208 30.098C33.9733 29.9104 34.36 29.5928 34.632 29.1854C34.904 28.778 35.0491 28.299 35.0488 27.8092C35.0479 27.1527 34.7867 26.5234 34.3224 26.0594C33.8581 25.5953 33.2287 25.3343 32.5723 25.3337ZM32.5723 29.1429C32.3085 29.1429 32.0506 29.0647 31.8313 28.9181C31.612 28.7716 31.441 28.5633 31.3401 28.3196C31.2391 28.0759 31.2127 27.8077 31.2642 27.549C31.3156 27.2903 31.4427 27.0526 31.6292 26.8661C31.8157 26.6796 32.0534 26.5525 32.3121 26.5011C32.5708 26.4496 32.839 26.476 33.0827 26.577C33.3264 26.6779 33.5347 26.8489 33.6812 27.0682C33.8278 27.2875 33.906 27.5454 33.906 27.8092C33.9057 28.1628 33.7651 28.5019 33.515 28.7519C33.265 29.002 32.9259 29.1426 32.5723 29.1429Z" fill="#A0A0A0"/>
<path d="M25.8709 30.2858H22.1291C21.5646 30.2861 21.0232 30.5105 20.6239 30.9097C20.2247 31.3089 20.0003 31.8503 20 32.4149V35.4286C20 35.5802 20.0602 35.7255 20.1674 35.8327C20.2745 35.9398 20.4199 36.0001 20.5714 36.0001C20.723 36.0001 20.8683 35.9398 20.9755 35.8327C21.0827 35.7255 21.1429 35.5802 21.1429 35.4286V32.4149C21.1432 32.1534 21.2472 31.9027 21.4321 31.7178C21.617 31.5329 21.8677 31.4289 22.1291 31.4286H25.8709C26.1323 31.4289 26.383 31.5329 26.5679 31.7178C26.7528 31.9027 26.8568 32.1534 26.8571 32.4149V35.4286C26.8571 35.5802 26.9173 35.7255 27.0245 35.8327C27.1317 35.9398 27.277 36.0001 27.4286 36.0001C27.5801 36.0001 27.7255 35.9398 27.8326 35.8327C27.9398 35.7255 28 35.5802 28 35.4286V32.4149C27.9997 31.8503 27.7753 31.3089 27.3761 30.9097C26.9768 30.5105 26.4354 30.2861 25.8709 30.2858Z" fill="#A0A0A0"/>
<path d="M16.9874 31.048H13.8697C13.3745 31.0483 12.8996 31.2449 12.5492 31.5947C12.1987 31.9446 12.0012 32.4191 12 32.9143V35.4285C12 35.5801 12.0602 35.7254 12.1674 35.8326C12.2745 35.9398 12.4199 36 12.5714 36C12.723 36 12.8683 35.9398 12.9755 35.8326C13.0827 35.7254 13.1429 35.5801 13.1429 35.4285V32.9143C13.1432 32.7217 13.2199 32.5371 13.3562 32.401C13.4924 32.265 13.6771 32.1885 13.8697 32.1885H16.9874C17.18 32.1885 17.3647 32.265 17.501 32.401C17.6373 32.5371 17.714 32.7217 17.7143 32.9143V35.4285C17.7143 35.5801 17.7745 35.7254 17.8817 35.8326C17.9888 35.9398 18.1342 36 18.2857 36C18.4373 36 18.5826 35.9398 18.6898 35.8326C18.7969 35.7254 18.8571 35.5801 18.8571 35.4285V32.9143C18.8559 32.4191 18.6584 31.9446 18.308 31.5947C17.9575 31.2449 17.4826 31.0483 16.9874 31.048Z" fill="#A0A0A0"/>
<path d="M34.13 31.048H31.0123C30.5171 31.0483 30.0422 31.2449 29.6917 31.5947C29.3413 31.9446 29.1438 32.4191 29.1426 32.9143V35.4285C29.1426 35.5801 29.2028 35.7254 29.3099 35.8326C29.4171 35.9398 29.5625 36 29.714 36C29.8656 36 30.0109 35.9398 30.1181 35.8326C30.2252 35.7254 30.2854 35.5801 30.2854 35.4285V32.9143C30.2857 32.7217 30.3625 32.5371 30.4987 32.401C30.635 32.265 30.8197 32.1885 31.0123 32.1885H34.13C34.3226 32.1885 34.5073 32.265 34.6436 32.401C34.7798 32.5371 34.8566 32.7217 34.8569 32.9143V35.4285C34.8569 35.5801 34.9171 35.7254 35.0242 35.8326C35.1314 35.9398 35.2767 36 35.4283 36C35.5798 36 35.7252 35.9398 35.8324 35.8326C35.9395 35.7254 35.9997 35.5801 35.9997 35.4285V32.9143C35.9985 32.4191 35.801 31.9446 35.4506 31.5947C35.1001 31.2449 34.6252 31.0483 34.13 31.048Z" fill="#A0A0A0"/>
<path d="M12.5714 13.1429H13.1429V22.8571C13.1429 23.0087 13.2031 23.154 13.3102 23.2612C13.4174 23.3684 13.5627 23.4286 13.7143 23.4286C13.8658 23.4286 14.0112 23.3684 14.1183 23.2612C14.2255 23.154 14.2857 23.0087 14.2857 22.8571V13.1429H33.7143V22.8571C33.7143 23.0087 33.7745 23.154 33.8817 23.2612C33.9888 23.3684 34.1342 23.4286 34.2857 23.4286C34.4373 23.4286 34.5826 23.3684 34.6898 23.2612C34.7969 23.154 34.8571 23.0087 34.8571 22.8571V13.1429H35.4286C35.5801 13.1429 35.7255 13.0827 35.8326 12.9755C35.9398 12.8683 36 12.723 36 12.5714C36 12.4199 35.9398 12.2745 35.8326 12.1674C35.7255 12.0602 35.5801 12 35.4286 12H12.5714C12.4199 12 12.2745 12.0602 12.1674 12.1674C12.0602 12.2745 12 12.4199 12 12.5714C12 12.723 12.0602 12.8683 12.1674 12.9755C12.2745 13.0827 12.4199 13.1429 12.5714 13.1429Z" fill="#A0A0A0"/>
<path d="M29.7144 19.4286V16C29.7144 15.8485 29.6542 15.7031 29.5471 15.596C29.4399 15.4888 29.2946 15.4286 29.143 15.4286H25.7144C25.5629 15.4286 25.4176 15.4888 25.3104 15.596C25.2032 15.7031 25.143 15.8485 25.143 16C25.143 16.1516 25.2032 16.2969 25.3104 16.4041C25.4176 16.5112 25.5629 16.5714 25.7144 16.5714H27.7636L24.5716 19.7634L22.6904 17.8812C22.6374 17.8279 22.5743 17.7857 22.5049 17.7569C22.4355 17.7281 22.361 17.7133 22.2859 17.7133C22.2107 17.7133 22.1363 17.7281 22.0669 17.7569C21.9974 17.7857 21.9344 17.8279 21.8813 17.8812L18.4527 21.3097C18.3454 21.417 18.2852 21.5626 18.2852 21.7143C18.2852 21.866 18.3454 22.0116 18.4527 22.1189C18.56 22.2262 18.7056 22.2865 18.8573 22.2865C19.0091 22.2865 19.1546 22.2262 19.2619 22.1189L22.2859 19.0937L24.167 20.976C24.2201 21.0292 24.2832 21.0715 24.3526 21.1003C24.422 21.1291 24.4964 21.1439 24.5716 21.1439C24.6468 21.1439 24.7212 21.1291 24.7906 21.1003C24.86 21.0715 24.9231 21.0292 24.9762 20.976L28.5716 17.3794V19.4286C28.5716 19.5801 28.6318 19.7255 28.739 19.8327C28.8461 19.9398 28.9915 20 29.143 20C29.2946 20 29.4399 19.9398 29.5471 19.8327C29.6542 19.7255 29.7144 19.5801 29.7144 19.4286Z" fill="#A0A0A0"/>
</svg>
