<svg width="48" height="48" viewBox="0 0 48 48" fill="none" xmlns="http://www.w3.org/2000/svg">
<path d="M19.1996 20.3998C20.0818 20.3998 20.7996 19.6823 20.7996 18.7998C20.7996 17.9174 20.0818 17.1998 19.1996 17.1998C18.3174 17.1998 17.5996 17.9174 17.5996 18.7998C17.5996 19.6823 18.3174 20.3998 19.1996 20.3998ZM19.1996 17.9998C19.6408 17.9998 19.9996 18.3588 19.9996 18.7998C19.9996 19.2408 19.6408 19.5998 19.1996 19.5998C18.7584 19.5998 18.3996 19.2408 18.3996 18.7998C18.3996 18.3588 18.7584 17.9998 19.1996 17.9998Z" fill="#A0A0A0"/>
<path d="M12.4 25.5998H16V25.9998C16 26.2209 16.1791 26.3998 16.4 26.3998H22C22.2209 26.3998 22.4 26.2209 22.4 25.9998V25.5998H26C26.2209 25.5998 26.4 25.4209 26.4 25.1998V24.1717C26.4 24.1045 26.3959 24.0409 26.391 23.9717C26.2881 22.5139 25.0621 21.3717 23.6 21.3717C22.8508 21.3717 22.1481 21.6619 21.6211 22.1889C21.5357 22.2743 21.4606 22.3709 21.3865 22.4677C20.7913 21.9091 20.0201 21.5998 19.2 21.5998C18.3809 21.5998 17.599 21.9221 17.0163 22.471C16.9413 22.3729 16.8652 22.2752 16.7787 22.1889C16.2522 21.6619 15.5492 21.3717 14.8 21.3717C13.2561 21.3717 12 22.628 12 24.1717V25.1998C12 25.4209 12.1791 25.5998 12.4 25.5998ZM22.1867 22.7545C22.5627 22.3787 23.0645 22.1717 23.6 22.1717C24.6442 22.1717 25.5196 22.9869 25.5934 24.0342C25.5965 24.0787 25.6 24.1241 25.6 24.1717V24.7998H22.4C22.4 24.485 22.3553 24.1772 22.2684 23.8893C22.2326 23.7649 22.186 23.6446 22.1347 23.5267C22.1232 23.5003 22.1117 23.4741 22.0994 23.448C22.0443 23.3306 21.9835 23.2166 21.9141 23.1082C21.9127 23.106 21.9118 23.1036 21.9104 23.1014C21.9891 22.9764 22.0826 22.8588 22.1867 22.7545ZM19.2 22.3998C19.8412 22.3998 20.444 22.6494 20.8969 23.1022C20.9783 23.1838 21.0508 23.2698 21.1231 23.3721C21.2969 23.5979 21.4237 23.8463 21.501 24.1155C21.5666 24.333 21.6 24.5635 21.6 24.7998V25.1998V25.5998H16.8V25.1998V24.7998C16.8 24.5635 16.8334 24.333 16.9004 24.1104C16.9764 23.8463 17.1031 23.5979 17.282 23.3655C17.7276 22.7608 18.4445 22.3998 19.2 22.3998ZM12.8 24.1717C12.8 23.069 13.6973 22.1717 14.8 22.1717C15.3356 22.1717 15.8373 22.3787 16.2133 22.7545C16.3174 22.8588 16.4109 22.9764 16.4897 23.1014C16.4881 23.1038 16.4871 23.1064 16.4856 23.1088C16.4163 23.2173 16.3566 23.33 16.3023 23.4446C16.2895 23.4718 16.2773 23.4991 16.2653 23.5265C16.2142 23.6436 16.1681 23.7623 16.133 23.8842C16.0447 24.1772 16 24.485 16 24.7998H12.8L12.8 24.1717Z" fill="#A0A0A0"/>
<path d="M14.7996 20.4569C15.5873 20.4569 16.2281 19.8159 16.2281 19.0284C16.2281 18.2409 15.5873 17.5999 14.7996 17.5999C14.0119 17.5999 13.3711 18.2409 13.3711 19.0284C13.3711 19.8159 14.0119 20.4569 14.7996 20.4569ZM14.7996 18.3999C15.1461 18.3999 15.4281 18.6819 15.4281 19.0284C15.4281 19.3749 15.1461 19.6569 14.7996 19.6569C14.4531 19.6569 14.1711 19.3749 14.1711 19.0284C14.1711 18.6819 14.4531 18.3999 14.7996 18.3999Z" fill="#A0A0A0"/>
<path d="M23.5984 20.4569C24.3861 20.4569 25.027 19.8159 25.027 19.0284C25.027 18.2409 24.3861 17.5999 23.5984 17.5999C22.8107 17.5999 22.1699 18.2409 22.1699 19.0284C22.1699 19.8159 22.8107 20.4569 23.5984 20.4569ZM23.5984 18.3999C23.9449 18.3999 24.227 18.6819 24.227 19.0284C24.227 19.3749 23.9449 19.6569 23.5984 19.6569C23.252 19.6569 22.9699 19.3749 22.9699 19.0284C22.9699 18.6819 23.252 18.3999 23.5984 18.3999Z" fill="#A0A0A0"/>
<path d="M27.5953 24.3999H29.0475C29.2684 24.3999 29.4475 24.2209 29.4475 23.9999C29.4475 23.7788 29.2684 23.5999 29.0475 23.5999H27.5953C27.3744 23.5999 27.1953 23.7788 27.1953 23.9999C27.1953 24.2209 27.3744 24.3999 27.5953 24.3999Z" fill="#A0A0A0"/>
<path d="M35.9815 31.4796L33.9975 25.1917C33.9309 24.9808 33.7057 24.8652 33.4957 24.9304C33.285 24.9972 33.1682 25.2218 33.2346 25.4324L35.0543 31.2H12.9459L14.2975 26.9203C14.3641 26.7097 14.2471 26.4851 14.0365 26.4187C13.8267 26.3507 13.6012 26.4683 13.5346 26.6796L12.0185 31.4796C11.9803 31.6011 12.0019 31.7336 12.0773 31.8363C12.1527 31.939 12.2724 32 12.4 32H35.6C35.7274 32 35.8473 31.9394 35.9227 31.8363C35.9979 31.7336 36.0198 31.6011 35.9815 31.4796Z" fill="#A0A0A0"/>
<path d="M31.2309 26.1523C31.2929 26.3023 31.4388 26.3999 31.6009 26.3999C31.763 26.3999 31.9089 26.3023 31.9708 26.1523L34.3788 20.3042C34.761 19.3749 34.6768 18.3054 34.1534 17.4425C33.6536 16.6187 32.8296 16.0979 31.8958 16.014C31.7024 15.9952 31.4964 15.9956 31.3089 16.0136C30.372 16.0979 29.5479 16.6187 29.0481 17.4429C28.5247 18.3058 28.4405 19.3753 28.8229 20.3042L31.2309 26.1523ZM29.7321 17.8577C30.0987 17.2534 30.6995 16.8718 31.3837 16.8101C31.455 16.803 31.5296 16.7999 31.6009 16.7999C31.6722 16.7999 31.7468 16.803 31.8212 16.8105C32.502 16.8718 33.103 17.2534 33.4694 17.8577C33.8616 18.5038 33.9249 19.3046 33.639 19.9995L31.6009 24.9499L29.5628 19.9995C29.2766 19.3046 29.3399 18.5042 29.7321 17.8577Z" fill="#A0A0A0"/>
<path d="M31.6 20.7999C32.4822 20.7999 33.2 20.0823 33.2 19.1999C33.2 18.3174 32.4822 17.5999 31.6 17.5999C30.7178 17.5999 30 18.3174 30 19.1999C30 20.0823 30.7178 20.7999 31.6 20.7999ZM31.6 18.3999C32.0412 18.3999 32.4 18.7588 32.4 19.1999C32.4 19.6409 32.0412 19.9999 31.6 19.9999C31.1588 19.9999 30.8 19.6409 30.8 19.1999C30.8 18.7588 31.1588 18.3999 31.6 18.3999Z" fill="#A0A0A0"/>
<path d="M21.882 27.717C21.7258 27.5608 21.4727 27.5608 21.3164 27.717C21.1602 27.8733 21.1602 28.1264 21.3164 28.2827L21.7164 28.6827C21.7945 28.7608 21.8969 28.7999 21.9992 28.7999C22.1016 28.7999 22.2039 28.7608 22.282 28.6827C22.4383 28.5264 22.4383 28.2733 22.282 28.117L21.882 27.717Z" fill="#A0A0A0"/>
<path d="M23.2008 28.7999C22.9799 28.7999 22.8008 28.9788 22.8008 29.1999C22.8008 29.421 22.9799 29.5999 23.2008 29.5999H23.6008C23.8217 29.5999 24.0008 29.421 24.0008 29.1999C24.0008 28.9788 23.8217 28.7999 23.6008 28.7999H23.2008Z" fill="#A0A0A0"/>
<path d="M24.9176 27.717L24.5176 28.117C24.3613 28.2733 24.3613 28.5264 24.5176 28.6827C24.5957 28.7608 24.698 28.7999 24.8004 28.7999C24.9027 28.7999 25.0051 28.7608 25.0832 28.6827L25.4832 28.2827C25.6395 28.1264 25.6395 27.8733 25.4832 27.717C25.327 27.5608 25.0738 27.5608 24.9176 27.717Z" fill="#A0A0A0"/>
<path d="M26.5176 27.717C26.3613 27.8733 26.3613 28.1264 26.5176 28.2827L26.9176 28.6827C26.9957 28.7608 27.098 28.7999 27.2004 28.7999C27.3027 28.7999 27.4051 28.7608 27.4832 28.6827C27.6395 28.5264 27.6395 28.2733 27.4832 28.117L27.0832 27.717C26.927 27.5608 26.6738 27.5608 26.5176 27.717Z" fill="#A0A0A0"/>
<path d="M28.8004 28.3999C28.5795 28.3999 28.4004 28.5788 28.4004 28.7999C28.4004 29.021 28.5795 29.1999 28.8004 29.1999H29.2004C29.4213 29.1999 29.6004 29.021 29.6004 28.7999C29.6004 28.5788 29.4213 28.3999 29.2004 28.3999H28.8004Z" fill="#A0A0A0"/>
<path d="M30.5172 27.3171L30.1172 27.7171C29.9609 27.8734 29.9609 28.1265 30.1172 28.2828C30.1953 28.3609 30.2977 28.4 30.4 28.4C30.5023 28.4 30.6047 28.3609 30.6828 28.2828L31.0828 27.8828C31.2391 27.7265 31.2391 27.4734 31.0828 27.3171C30.9266 27.1609 30.6734 27.1609 30.5172 27.3171Z" fill="#A0A0A0"/>
<path d="M25.3162 26.5172C25.1602 26.6734 25.1602 26.9269 25.3164 27.0828C25.4727 27.239 25.726 27.239 25.8823 27.0828C25.9666 26.9984 26.0319 26.9984 26.1162 27.0828C26.1944 27.1609 26.2969 27.2 26.3992 27.2C26.5016 27.2 26.6039 27.1609 26.6821 27.0828C26.8383 26.9269 26.8383 26.6734 26.6823 26.5172C26.3174 26.1523 25.6811 26.1523 25.3162 26.5172Z" fill="#A0A0A0"/>
</svg>
