<svg width="48" height="48" viewBox="0 0 48 48" fill="none" xmlns="http://www.w3.org/2000/svg">
<path d="M33.162 21.1852L33.1582 21.1694C33.096 20.9181 32.8418 20.7649 32.5906 20.8271C32.3393 20.8893 32.186 21.1433 32.2482 21.3947L32.251 21.4061C32.303 21.6206 32.4948 21.7644 32.7061 21.7644C32.7427 21.7644 32.7799 21.7601 32.8169 21.7511C33.0685 21.6901 33.223 21.4367 33.162 21.1852Z" fill="#A0A0A0"/>
<path d="M20.7515 27.0266C19.5862 26.3235 18.8904 25.0923 18.8904 23.7332C18.8904 23.3131 18.9577 22.9003 19.0903 22.5064C19.1729 22.2611 19.041 21.9952 18.7957 21.9126C18.5504 21.8301 18.2845 21.962 18.2019 22.2073C18.0368 22.6978 17.9531 23.2112 17.9531 23.7332C17.9531 25.4237 18.8183 26.9549 20.2673 27.8293C20.343 27.875 20.4265 27.8968 20.5089 27.8968C20.6678 27.8968 20.8226 27.8159 20.9107 27.6701C21.0444 27.4484 20.9731 27.1604 20.7515 27.0266Z" fill="#A0A0A0"/>
<path d="M26.0097 20.2519C25.1197 19.4139 23.9559 18.9524 22.7329 18.9524C22.1602 18.9524 21.5997 19.0528 21.0672 19.2507C20.8246 19.3409 20.701 19.6107 20.7912 19.8534C20.8814 20.096 21.1512 20.2196 21.3939 20.1294C21.8216 19.9704 22.272 19.8898 22.733 19.8898C23.7162 19.8898 24.6517 20.2607 25.3671 20.9344C25.4576 21.0196 25.573 21.0619 25.6882 21.0619C25.8129 21.0619 25.9373 21.0124 26.0296 20.9144C26.207 20.726 26.1981 20.4293 26.0097 20.2519Z" fill="#A0A0A0"/>
<path d="M35.5313 23.8744H32.0051V22.9048C32.0051 22.4335 31.6216 22.05 31.1503 22.05H30.5211C30.1988 20.5523 29.4568 19.1883 28.3676 18.0991C26.5195 16.2509 23.8789 15.4267 21.3039 15.8939C21.0492 15.9401 20.8802 16.1841 20.9264 16.4388C20.9726 16.6935 21.2166 16.8624 21.4713 16.8163C23.7437 16.4039 26.0741 17.1312 27.7048 18.762C28.6178 19.675 29.2547 20.8067 29.5598 22.05H27.0011C26.5298 22.05 26.1463 22.4335 26.1463 22.9048V23.8745H22.62C22.3612 23.8745 22.1513 24.0844 22.1513 24.3432V27.2185C22.1513 27.6584 22.3227 28.0589 22.6017 28.3575V30.7628C20.7732 30.7316 19.0656 30.0083 17.7621 28.7047C16.0889 27.0315 15.372 24.6463 15.8446 22.3243C15.8962 22.0707 15.7324 21.8232 15.4788 21.7716C15.225 21.7199 14.9776 21.8837 14.926 22.1374C14.3906 24.7684 15.203 27.4713 17.0992 29.3675C18.5582 30.8265 20.5454 31.6641 22.6017 31.6995V33.3979C22.6017 33.4419 22.6046 33.4851 22.6098 33.5276C17.2651 33.4612 12.9374 29.0935 12.9374 23.7333C12.9374 22.0572 13.3637 20.4188 14.1735 18.9669L15.7549 20.5558C15.8429 20.6442 15.9624 20.6939 16.0871 20.6939H19.035L21.925 23.5839C22.0166 23.6755 22.1365 23.7212 22.2564 23.7212C22.3764 23.7212 22.4964 23.6755 22.5878 23.5839C22.7709 23.4009 22.7709 23.1041 22.5878 22.921L19.6978 20.031V17.083C19.6978 16.9585 19.6483 16.8392 19.5601 16.7512L17.9743 15.1693C19.4243 14.3622 21.06 13.9374 22.7332 13.9374C26.5355 13.9374 30.026 16.1673 31.6258 19.6186C31.7051 19.7897 31.8744 19.8902 32.0513 19.8902C32.1173 19.8902 32.1844 19.8762 32.2482 19.8467C32.483 19.7378 32.5852 19.4591 32.4763 19.2243C31.627 17.392 30.2816 15.8394 28.5854 14.7343C26.8441 13.5997 24.8205 13 22.7332 13C20.8103 13 18.9323 13.5123 17.2865 14.4832L15.9375 13.1374C15.8033 13.0036 15.6019 12.9636 15.4269 13.0363C15.2519 13.1089 15.1379 13.2797 15.1379 13.4692V16.1254H12.4734C12.284 16.1254 12.1132 16.2394 12.0406 16.4142C11.9679 16.5891 12.0076 16.7905 12.1412 16.9248L13.488 18.278C12.514 19.926 12 21.807 12 23.7332C12 26.6002 13.1165 29.2956 15.1437 31.3229C17.171 33.3502 19.8664 34.4666 22.7333 34.4666L34.4804 34.4671C35.07 34.4671 35.5496 33.9875 35.5496 33.3978V28.3577C35.8402 28.0473 36 27.6448 36 27.2176V24.3431C36 24.0843 35.7901 23.8744 35.5313 23.8744ZM16.0752 14.5988L18.7605 17.2774V19.0917L16.0752 16.4004V14.5988ZM15.4121 17.0629L18.0976 19.7563H16.2819L13.6012 17.0629H15.4121ZM27.0836 22.9874H31.0676V23.8744H27.0836V22.9874ZM34.6122 31.2796H31.5363C31.2775 31.2796 31.0676 31.4895 31.0676 31.7483C31.0676 32.0071 31.2775 32.217 31.5363 32.217H34.6122V33.3978C34.6122 33.4705 34.5531 33.5297 34.4804 33.5297H24.2455C24.2421 33.5297 24.2389 33.5292 24.2355 33.5292H23.6659C23.5955 33.5265 23.539 33.4689 23.539 33.3978V28.8638C23.6308 28.8795 23.7249 28.8881 23.821 28.8881H27.6865C27.7696 29.581 28.3607 30.12 29.0756 30.12C29.7916 30.12 30.3835 29.5793 30.4651 28.8849L34.3291 28.8873C34.3295 28.8873 34.3298 28.8873 34.3302 28.8873C34.4257 28.8873 34.5199 28.8789 34.6121 28.8632V31.2796H34.6122ZM28.6136 28.7205V27.8965H29.5378V28.7205C29.5378 28.9753 29.3304 29.1826 29.0757 29.1826C28.8209 29.1826 28.6136 28.9753 28.6136 28.7205ZM35.0626 27.2176C35.0626 27.4133 34.9864 27.5973 34.8479 27.7356C34.7096 27.8738 34.5258 27.9499 34.3302 27.9499C34.3301 27.9499 34.3299 27.9499 34.3298 27.9499L30.4751 27.9475V27.5179C30.4751 27.2098 30.2245 26.9591 29.9163 26.9591H28.2349C27.9268 26.9591 27.6761 27.2098 27.6761 27.5179V27.9507H23.821C23.4172 27.9507 23.0887 27.6221 23.0887 27.2184V24.8118H35.0625V27.2176H35.0626Z" fill="#A0A0A0"/>
<path d="M29.5715 31.4169C29.4844 31.3297 29.3634 31.2795 29.2402 31.2795C29.1164 31.2795 28.996 31.3297 28.9084 31.4169C28.8212 31.5041 28.7715 31.625 28.7715 31.7482C28.7715 31.8715 28.8212 31.9924 28.9084 32.0796C28.996 32.1667 29.1165 32.2169 29.2402 32.2169C29.3635 32.2169 29.4839 32.1668 29.5715 32.0796C29.6587 31.9924 29.7089 31.8715 29.7089 31.7482C29.7089 31.625 29.6587 31.5041 29.5715 31.4169Z" fill="#A0A0A0"/>
</svg>
