<svg width="48" height="48" viewBox="0 0 48 48" fill="none" xmlns="http://www.w3.org/2000/svg">
<path d="M30.1045 31.5604C30.1748 31.6305 30.2142 31.7255 30.2142 31.8247C30.2142 31.9239 30.1748 32.0189 30.1045 32.0891C28.2239 33.9664 25.7231 35 23.063 35C21.9572 35 20.8758 34.8208 19.8436 34.468C19.5797 34.7922 19.1775 35 18.7275 35H13.4391C12.6464 35 12.0014 34.3562 12.0014 33.5649C12.0014 33.1443 12.1833 32.7657 12.4725 32.5027C12.1833 32.2402 12.0014 31.8617 12.0014 31.4415C12.0014 31.0209 12.1833 30.6423 12.4725 30.3793C12.1833 30.1168 12.0014 29.7383 12.0014 29.3181C12.0014 28.5259 12.6464 27.8816 13.4391 27.8816H13.7278C12.6834 27.1428 12 25.9271 12 24.5552C12 23.0944 12.7739 21.8109 13.9341 21.0912C15.5194 17.4616 19.0889 15.123 23.0634 15.123C23.2706 15.123 23.438 15.2905 23.438 15.4969V24.9061L30.1045 31.5604ZM16.0833 27.8816C17.9208 27.8816 19.4156 26.3894 19.4156 24.5552C19.4156 22.7201 17.9208 21.2274 16.0833 21.2274C14.2448 21.2274 12.7495 22.7201 12.7495 24.5552C12.7495 26.3894 14.2453 27.8816 16.0833 27.8816ZM13.4391 30.005H18.7275C19.1072 30.005 19.4156 29.6967 19.4156 29.3181C19.4156 28.9386 19.1067 28.6298 18.7275 28.6298H13.4391C13.0594 28.6298 12.7509 28.9386 12.7509 29.3181C12.7509 29.6971 13.0598 30.005 13.4391 30.005ZM13.4391 32.1284H18.7275C19.1072 32.1284 19.4156 31.8201 19.4156 31.4415C19.4156 31.062 19.1067 30.7532 18.7275 30.7532H13.4391C13.0594 30.7532 12.7509 31.062 12.7509 31.4415C12.7509 31.8205 13.0598 32.1284 13.4391 32.1284ZM19.4156 33.5649C19.4156 33.1854 19.1067 32.8766 18.7275 32.8766H13.4391C13.0594 32.8766 12.7509 33.1854 12.7509 33.5649C12.7509 33.9439 13.0598 34.2518 13.4391 34.2518H18.7275C19.1072 34.2523 19.4156 33.9439 19.4156 33.5649ZM29.3048 31.8196L22.7986 25.3263C22.7283 25.2561 22.6889 25.1612 22.6889 25.062V15.8787C19.4498 16.0088 16.5455 17.8168 14.9972 20.6257C15.3431 20.5302 15.7073 20.4792 16.0833 20.4792C18.3342 20.4792 20.1652 22.3078 20.1652 24.5552C20.1652 25.9271 19.4822 27.1428 18.4378 27.8816H18.7275C19.5202 27.8816 20.1652 28.5259 20.1652 29.3181C20.1652 29.7383 19.9833 30.1168 19.6941 30.3793C19.9833 30.6423 20.1652 31.0213 20.1652 31.4415C20.1652 31.8617 19.9833 32.2402 19.6941 32.5027C19.9833 32.7657 20.1652 33.1447 20.1652 33.5649C20.1652 33.6384 20.1595 33.7109 20.1488 33.7816C21.0839 34.0937 22.0622 34.2523 23.063 34.2523C25.3983 34.2523 27.6 33.3913 29.3048 31.8196ZM24.3891 23.9394V14.3739C24.3891 14.167 24.5569 14 24.7636 14C27.4233 14 29.9236 15.0341 31.8042 16.9114C33.6844 18.7886 34.7203 21.285 34.7203 23.9399C34.7203 24.1467 34.5525 24.3138 34.3458 24.3138H24.7641C24.5569 24.3138 24.3891 24.1463 24.3891 23.9394ZM25.1386 23.5656H33.9633C33.7711 18.7943 29.918 14.9475 25.1386 14.7552V23.5656ZM36 25.6361C36 28.291 34.9645 30.7869 33.0839 32.6637C33.0108 32.7367 32.9147 32.7732 32.8191 32.7732C32.7234 32.7732 32.6273 32.7367 32.5542 32.6637L25.7784 25.9005C25.6711 25.7933 25.6392 25.6328 25.6973 25.4929C25.7555 25.353 25.8919 25.2618 26.0433 25.2618H35.625C35.8322 25.2618 36 25.4293 36 25.6361ZM35.243 26.01H26.9484L32.8134 31.865C34.3031 30.2549 35.1558 28.2003 35.243 26.01Z" fill="#A0A0A0"/>
</svg>
