<svg width="60" height="60" viewBox="0 0 60 60" fill="none" xmlns="http://www.w3.org/2000/svg">
<path d="M35.4001 16.4C35.4001 19.3824 32.9825 21.8 30.0001 21.8C27.0177 21.8 24.6001 19.3824 24.6001 16.4C24.6001 13.4177 27.0177 11 30.0001 11C32.9825 11 35.4001 13.4177 35.4001 16.4Z" stroke="#787878" stroke-width="1.5" stroke-miterlimit="10" stroke-linecap="round" stroke-linejoin="round"/>
<path d="M39 29C37.0953 26.2532 34.2019 24.5 30.9617 24.5H29.0383C25.7981 24.5 22.9047 26.2532 21 29" stroke="#787878" stroke-width="1.5" stroke-miterlimit="10" stroke-linecap="round" stroke-linejoin="round"/>
<path d="M7.81543 48V40H9.02246V43.4766H13.0107V40H14.2217V48H13.0107V44.5117H9.02246V48H7.81543ZM18.4717 48.1211C17.8805 48.1211 17.3714 47.9948 16.9443 47.7422C16.5199 47.487 16.1917 47.1289 15.96 46.668C15.7308 46.2044 15.6162 45.6615 15.6162 45.0391C15.6162 44.4245 15.7308 43.8828 15.96 43.4141C16.1917 42.9453 16.5146 42.5794 16.9287 42.3164C17.3454 42.0534 17.8324 41.9219 18.3896 41.9219C18.7282 41.9219 19.0563 41.9779 19.374 42.0898C19.6917 42.2018 19.9769 42.3776 20.2295 42.6172C20.4821 42.8568 20.6813 43.168 20.8271 43.5508C20.973 43.931 21.0459 44.3932 21.0459 44.9375V45.3516H16.2764V44.4766H19.9014C19.9014 44.1693 19.8389 43.8971 19.7139 43.6602C19.5889 43.4206 19.4131 43.2318 19.1865 43.0937C18.9626 42.9557 18.6995 42.8867 18.3975 42.8867C18.0693 42.8867 17.7829 42.9674 17.5381 43.1289C17.2959 43.2878 17.1084 43.4961 16.9756 43.7539C16.8454 44.0091 16.7803 44.2865 16.7803 44.5859V45.2695C16.7803 45.6706 16.8506 46.0117 16.9912 46.293C17.1344 46.5742 17.3337 46.7891 17.5889 46.9375C17.8441 47.0833 18.1423 47.1562 18.4834 47.1562C18.7048 47.1562 18.9066 47.125 19.0889 47.0625C19.2712 46.9974 19.4287 46.901 19.5615 46.7734C19.6943 46.6458 19.7959 46.4883 19.8662 46.3008L20.9717 46.5C20.8831 46.8255 20.7243 47.1107 20.4951 47.3555C20.2686 47.5977 19.9834 47.7865 19.6396 47.9219C19.2985 48.0547 18.9092 48.1211 18.4717 48.1211ZM26.8379 43.4648L25.7793 43.6523C25.735 43.5169 25.6647 43.388 25.5684 43.2656C25.4746 43.1432 25.347 43.043 25.1855 42.9648C25.0241 42.8867 24.8223 42.8477 24.5801 42.8477C24.2493 42.8477 23.9733 42.9219 23.752 43.0703C23.5306 43.2161 23.4199 43.4049 23.4199 43.6367C23.4199 43.8372 23.4941 43.9987 23.6426 44.1211C23.791 44.2435 24.0306 44.3437 24.3613 44.4219L25.3145 44.6406C25.8665 44.7682 26.278 44.9648 26.5488 45.2305C26.8197 45.4961 26.9551 45.8411 26.9551 46.2656C26.9551 46.625 26.8509 46.9453 26.6426 47.2266C26.4368 47.5052 26.1491 47.724 25.7793 47.8828C25.4121 48.0417 24.9863 48.1211 24.502 48.1211C23.8301 48.1211 23.2819 47.9779 22.8574 47.6914C22.4329 47.4023 22.1725 46.9922 22.0762 46.4609L23.2051 46.2891C23.2754 46.5833 23.4199 46.806 23.6387 46.957C23.8574 47.1055 24.1426 47.1797 24.4941 47.1797C24.877 47.1797 25.1829 47.1003 25.4121 46.9414C25.6413 46.7799 25.7559 46.5833 25.7559 46.3516C25.7559 46.1641 25.6855 46.0065 25.5449 45.8789C25.4069 45.7513 25.1947 45.6549 24.9082 45.5898L23.8926 45.3672C23.3327 45.2396 22.9186 45.0365 22.6504 44.7578C22.3848 44.4792 22.252 44.1263 22.252 43.6992C22.252 43.3451 22.3509 43.0352 22.5488 42.7695C22.7467 42.5039 23.0202 42.2969 23.3691 42.1484C23.7181 41.9974 24.1178 41.9219 24.5684 41.9219C25.2168 41.9219 25.7272 42.0625 26.0996 42.3437C26.472 42.6224 26.7181 42.9961 26.8379 43.4648ZM29.9854 48.1328C29.6051 48.1328 29.2614 48.0625 28.9541 47.9219C28.6468 47.7786 28.4033 47.5716 28.2236 47.3008C28.0465 47.0299 27.958 46.6979 27.958 46.3047C27.958 45.9661 28.0231 45.6875 28.1533 45.4687C28.2835 45.25 28.4593 45.0768 28.6807 44.9492C28.902 44.8216 29.1494 44.7253 29.4229 44.6602C29.6963 44.5951 29.9749 44.5456 30.2588 44.5117C30.6182 44.4701 30.9098 44.4362 31.1338 44.4102C31.3577 44.3815 31.5205 44.3359 31.6221 44.2734C31.7236 44.2109 31.7744 44.1094 31.7744 43.9687V43.9414C31.7744 43.6003 31.6781 43.3359 31.4854 43.1484C31.2952 42.9609 31.0114 42.8672 30.6338 42.8672C30.2406 42.8672 29.9307 42.9544 29.7041 43.1289C29.4801 43.3008 29.3252 43.4922 29.2393 43.7031L28.1416 43.4531C28.2718 43.0885 28.4619 42.7943 28.7119 42.5703C28.9645 42.3437 29.2549 42.1797 29.583 42.0781C29.9111 41.974 30.2562 41.9219 30.6182 41.9219C30.8577 41.9219 31.1117 41.9505 31.3799 42.0078C31.6507 42.0625 31.9033 42.1641 32.1377 42.3125C32.3747 42.4609 32.5687 42.6732 32.7197 42.9492C32.8708 43.2227 32.9463 43.5781 32.9463 44.0156V48H31.8057V47.1797H31.7588C31.6833 47.3307 31.57 47.4792 31.4189 47.625C31.2679 47.7708 31.0739 47.8919 30.8369 47.9883C30.5999 48.0846 30.3161 48.1328 29.9854 48.1328ZM30.2393 47.1953C30.5622 47.1953 30.8382 47.1315 31.0674 47.0039C31.2992 46.8763 31.4749 46.7096 31.5947 46.5039C31.7171 46.2956 31.7783 46.0729 31.7783 45.8359V45.0625C31.7367 45.1042 31.6559 45.1432 31.5361 45.1797C31.4189 45.2135 31.2848 45.2435 31.1338 45.2695C30.9827 45.293 30.8356 45.3151 30.6924 45.3359C30.5492 45.3542 30.4294 45.3698 30.333 45.3828C30.1064 45.4115 29.8994 45.4596 29.7119 45.5273C29.527 45.5951 29.3786 45.6927 29.2666 45.8203C29.1572 45.9453 29.1025 46.112 29.1025 46.3203C29.1025 46.6094 29.2093 46.8281 29.4229 46.9766C29.6364 47.1224 29.9085 47.1953 30.2393 47.1953ZM34.5957 48V40H35.7637V42.9727H35.834C35.9017 42.8477 35.9993 42.7031 36.127 42.5391C36.2546 42.375 36.4316 42.2318 36.6582 42.1094C36.8848 41.9844 37.1842 41.9219 37.5566 41.9219C38.041 41.9219 38.4733 42.0443 38.8535 42.2891C39.2337 42.5339 39.5319 42.8867 39.748 43.3477C39.9668 43.8086 40.0762 44.3633 40.0762 45.0117C40.0762 45.6602 39.9681 46.2161 39.752 46.6797C39.5358 47.1406 39.2389 47.4961 38.8613 47.7461C38.4837 47.9935 38.0527 48.1172 37.5684 48.1172C37.2038 48.1172 36.9056 48.056 36.6738 47.9336C36.4447 47.8112 36.265 47.668 36.1348 47.5039C36.0046 47.3398 35.9043 47.194 35.834 47.0664H35.7363V48H34.5957ZM35.7402 45C35.7402 45.4219 35.8014 45.7917 35.9238 46.1094C36.0462 46.4271 36.2233 46.6758 36.4551 46.8555C36.6868 47.0326 36.9707 47.1211 37.3066 47.1211C37.6556 47.1211 37.9473 47.0286 38.1816 46.8437C38.416 46.6562 38.5931 46.4023 38.7129 46.082C38.8353 45.7617 38.8965 45.401 38.8965 45C38.8965 44.6042 38.8366 44.2487 38.7168 43.9336C38.5996 43.6185 38.4225 43.3698 38.1855 43.1875C37.9512 43.0052 37.6582 42.9141 37.3066 42.9141C36.9681 42.9141 36.6816 43.0013 36.4473 43.1758C36.2155 43.3503 36.0397 43.5937 35.9199 43.9062C35.8001 44.2187 35.7402 44.5833 35.7402 45ZM41.3877 48V42H42.5557V48H41.3877ZM44.127 48V42H45.248V42.9766H45.3223C45.4473 42.6458 45.6517 42.388 45.9355 42.2031C46.2194 42.0156 46.5592 41.9219 46.9551 41.9219C47.3561 41.9219 47.6921 42.0156 47.9629 42.2031C48.2363 42.3906 48.4382 42.6484 48.5684 42.9766H48.6309C48.7741 42.6562 49.002 42.401 49.3145 42.2109C49.627 42.0182 49.9993 41.9219 50.4316 41.9219C50.9759 41.9219 51.4199 42.0924 51.7637 42.4336C52.11 42.7747 52.2832 43.2891 52.2832 43.9766V48H51.1152V44.0859C51.1152 43.6797 51.0046 43.3854 50.7832 43.2031C50.5618 43.0208 50.2975 42.9297 49.9902 42.9297C49.61 42.9297 49.3145 43.0469 49.1035 43.2812C48.8926 43.513 48.7871 43.8112 48.7871 44.1758V48H47.623V44.0117C47.623 43.6862 47.5215 43.4245 47.3184 43.2266C47.1152 43.0286 46.8509 42.9297 46.5254 42.9297C46.304 42.9297 46.0996 42.9883 45.9121 43.1055C45.7272 43.2201 45.5775 43.3802 45.4629 43.5859C45.3509 43.7917 45.2949 44.0299 45.2949 44.3008V48H44.127Z" fill="#787878"/>
</svg>
