<svg width="60" height="60" viewBox="0 0 60 60" fill="none" xmlns="http://www.w3.org/2000/svg">
<path d="M34.7934 10.9999C33.6777 10.9999 32.6077 11.4432 31.8188 12.2321L23.3582 20.6927V26.6418H29.3073L37.7679 18.1812C38.5568 17.3923 39.0001 16.3223 39.0001 15.2066C39.0001 12.8833 37.1167 10.9999 34.7934 10.9999Z" fill="#C80000" fill-opacity="0.2" stroke="#C80000" stroke-width="1.5" stroke-miterlimit="10" stroke-linecap="round" stroke-linejoin="round"/>
<path d="M32.9745 17.0255L21 29" stroke="#C80000" stroke-width="1.5" stroke-miterlimit="10" stroke-linecap="round" stroke-linejoin="round"/>
<path d="M8.93311 40H10.3042L12.394 43.6367H12.48L14.5698 40H15.9409L13.0386 44.8594V48H11.8354V44.8594L8.93311 40ZM17.8198 48.1328C17.4396 48.1328 17.0959 48.0625 16.7886 47.9219C16.4813 47.7786 16.2378 47.5716 16.0581 47.3008C15.881 47.0299 15.7925 46.6979 15.7925 46.3047C15.7925 45.9661 15.8576 45.6875 15.9878 45.4687C16.118 45.25 16.2938 45.0768 16.5151 44.9492C16.7365 44.8216 16.9839 44.7253 17.2573 44.6602C17.5308 44.5951 17.8094 44.5456 18.0933 44.5117C18.4526 44.4701 18.7443 44.4362 18.9683 44.4102C19.1922 44.3815 19.355 44.3359 19.4565 44.2734C19.5581 44.2109 19.6089 44.1094 19.6089 43.9687V43.9414C19.6089 43.6003 19.5125 43.3359 19.3198 43.1484C19.1297 42.9609 18.8459 42.8672 18.4683 42.8672C18.075 42.8672 17.7651 42.9544 17.5386 43.1289C17.3146 43.3008 17.1597 43.4922 17.0737 43.7031L15.9761 43.4531C16.1063 43.0885 16.2964 42.7943 16.5464 42.5703C16.799 42.3437 17.0894 42.1797 17.4175 42.0781C17.7456 41.974 18.0907 41.9219 18.4526 41.9219C18.6922 41.9219 18.9461 41.9505 19.2144 42.0078C19.4852 42.0625 19.7378 42.1641 19.9722 42.3125C20.2091 42.4609 20.4032 42.6732 20.5542 42.9492C20.7052 43.2227 20.7808 43.5781 20.7808 44.0156V48H19.6401V47.1797H19.5933C19.5177 47.3307 19.4045 47.4792 19.2534 47.625C19.1024 47.7708 18.9084 47.8919 18.6714 47.9883C18.4344 48.0846 18.1506 48.1328 17.8198 48.1328ZM18.0737 47.1953C18.3966 47.1953 18.6727 47.1315 18.9019 47.0039C19.1336 46.8763 19.3094 46.7096 19.4292 46.5039C19.5516 46.2956 19.6128 46.0729 19.6128 45.8359V45.0625C19.5711 45.1042 19.4904 45.1432 19.3706 45.1797C19.2534 45.2135 19.1193 45.2435 18.9683 45.2695C18.8172 45.293 18.6701 45.3151 18.5269 45.3359C18.3836 45.3542 18.2638 45.3698 18.1675 45.3828C17.9409 45.4115 17.7339 45.4596 17.5464 45.5273C17.3615 45.5951 17.2131 45.6927 17.1011 45.8203C16.9917 45.9453 16.937 46.112 16.937 46.3203C16.937 46.6094 17.0438 46.8281 17.2573 46.9766C17.4709 47.1224 17.743 47.1953 18.0737 47.1953ZM22.2114 48V47.1992L25.4614 43.0703V43.0156H22.3169V42H26.9185V42.8516L23.7935 46.9297V46.9844H27.0278V48H22.2114ZM30.1519 48.1328C29.7716 48.1328 29.4279 48.0625 29.1206 47.9219C28.8133 47.7786 28.5698 47.5716 28.3901 47.3008C28.2131 47.0299 28.1245 46.6979 28.1245 46.3047C28.1245 45.9661 28.1896 45.6875 28.3198 45.4687C28.45 45.25 28.6258 45.0768 28.8472 44.9492C29.0685 44.8216 29.3159 44.7253 29.5894 44.6602C29.8628 44.5951 30.1414 44.5456 30.4253 44.5117C30.7847 44.4701 31.0763 44.4362 31.3003 44.4102C31.5243 44.3815 31.687 44.3359 31.7886 44.2734C31.8901 44.2109 31.9409 44.1094 31.9409 43.9687V43.9414C31.9409 43.6003 31.8446 43.3359 31.6519 43.1484C31.4618 42.9609 31.1779 42.8672 30.8003 42.8672C30.4071 42.8672 30.0972 42.9544 29.8706 43.1289C29.6466 43.3008 29.4917 43.4922 29.4058 43.7031L28.3081 43.4531C28.4383 43.0885 28.6284 42.7943 28.8784 42.5703C29.131 42.3437 29.4214 42.1797 29.7495 42.0781C30.0776 41.974 30.4227 41.9219 30.7847 41.9219C31.0243 41.9219 31.2782 41.9505 31.5464 42.0078C31.8172 42.0625 32.0698 42.1641 32.3042 42.3125C32.5412 42.4609 32.7352 42.6732 32.8862 42.9492C33.0373 43.2227 33.1128 43.5781 33.1128 44.0156V48H31.9722V47.1797H31.9253C31.8498 47.3307 31.7365 47.4792 31.5854 47.625C31.4344 47.7708 31.2404 47.8919 31.0034 47.9883C30.7664 48.0846 30.4826 48.1328 30.1519 48.1328ZM30.4058 47.1953C30.7287 47.1953 31.0047 47.1315 31.2339 47.0039C31.4657 46.8763 31.6414 46.7096 31.7612 46.5039C31.8836 46.2956 31.9448 46.0729 31.9448 45.8359V45.0625C31.9032 45.1042 31.8224 45.1432 31.7026 45.1797C31.5854 45.2135 31.4513 45.2435 31.3003 45.2695C31.1493 45.293 31.0021 45.3151 30.8589 45.3359C30.7157 45.3542 30.5959 45.3698 30.4995 45.3828C30.2729 45.4115 30.0659 45.4596 29.8784 45.5273C29.6935 45.5951 29.5451 45.6927 29.4331 45.8203C29.3237 45.9453 29.269 46.112 29.269 46.3203C29.269 46.6094 29.3758 46.8281 29.5894 46.9766C29.8029 47.1224 30.075 47.1953 30.4058 47.1953ZM34.6685 48V42H35.7974V42.9531H35.8599C35.9692 42.6302 36.1619 42.3763 36.438 42.1914C36.7166 42.0039 37.0317 41.9102 37.3833 41.9102C37.4562 41.9102 37.5422 41.9128 37.6411 41.918C37.7427 41.9232 37.8221 41.9297 37.8794 41.9375V43.0547C37.8325 43.0417 37.7492 43.0273 37.6294 43.0117C37.5096 42.9935 37.3898 42.9844 37.27 42.9844C36.994 42.9844 36.7479 43.043 36.5317 43.1602C36.3182 43.2747 36.1489 43.4349 36.0239 43.6406C35.8989 43.8437 35.8364 44.0755 35.8364 44.3359V48H34.6685ZM40.0581 40V48H38.8901V40H40.0581ZM43.3755 48.1328C42.9953 48.1328 42.6515 48.0625 42.3442 47.9219C42.0369 47.7786 41.7935 47.5716 41.6138 47.3008C41.4367 47.0299 41.3481 46.6979 41.3481 46.3047C41.3481 45.9661 41.4132 45.6875 41.5435 45.4687C41.6737 45.25 41.8494 45.0768 42.0708 44.9492C42.2922 44.8216 42.5396 44.7253 42.813 44.6602C43.0864 44.5951 43.3651 44.5456 43.6489 44.5117C44.0083 44.4701 44.3 44.4362 44.5239 44.4102C44.7479 44.3815 44.9106 44.3359 45.0122 44.2734C45.1138 44.2109 45.1646 44.1094 45.1646 43.9687V43.9414C45.1646 43.6003 45.0682 43.3359 44.8755 43.1484C44.6854 42.9609 44.4015 42.8672 44.0239 42.8672C43.6307 42.8672 43.3208 42.9544 43.0942 43.1289C42.8703 43.3008 42.7153 43.4922 42.6294 43.7031L41.5317 43.4531C41.6619 43.0885 41.8521 42.7943 42.1021 42.5703C42.3547 42.3437 42.645 42.1797 42.9731 42.0781C43.3013 41.974 43.6463 41.9219 44.0083 41.9219C44.2479 41.9219 44.5018 41.9505 44.77 42.0078C45.0409 42.0625 45.2935 42.1641 45.5278 42.3125C45.7648 42.4609 45.9588 42.6732 46.1099 42.9492C46.2609 43.2227 46.3364 43.5781 46.3364 44.0156V48H45.1958V47.1797H45.1489C45.0734 47.3307 44.9601 47.4792 44.8091 47.625C44.658 47.7708 44.464 47.8919 44.2271 47.9883C43.9901 48.0846 43.7062 48.1328 43.3755 48.1328ZM43.6294 47.1953C43.9523 47.1953 44.2284 47.1315 44.4575 47.0039C44.6893 46.8763 44.8651 46.7096 44.9849 46.5039C45.1073 46.2956 45.1685 46.0729 45.1685 45.8359V45.0625C45.1268 45.1042 45.0461 45.1432 44.9263 45.1797C44.8091 45.2135 44.675 45.2435 44.5239 45.2695C44.3729 45.293 44.2257 45.3151 44.0825 45.3359C43.9393 45.3542 43.8195 45.3698 43.7231 45.3828C43.4966 45.4115 43.2896 45.4596 43.1021 45.5273C42.9172 45.5951 42.7687 45.6927 42.6567 45.8203C42.5474 45.9453 42.4927 46.112 42.4927 46.3203C42.4927 46.6094 42.5994 46.8281 42.813 46.9766C43.0265 47.1224 43.2987 47.1953 43.6294 47.1953ZM47.8921 48V42H49.021V42.9531H49.0835C49.1929 42.6302 49.3856 42.3763 49.6616 42.1914C49.9403 42.0039 50.2554 41.9102 50.6069 41.9102C50.6799 41.9102 50.7658 41.9128 50.8647 41.918C50.9663 41.9232 51.0457 41.9297 51.103 41.9375V43.0547C51.0562 43.0417 50.9728 43.0273 50.853 43.0117C50.7332 42.9935 50.6134 42.9844 50.4937 42.9844C50.2176 42.9844 49.9715 43.043 49.7554 43.1602C49.5418 43.2747 49.3726 43.4349 49.2476 43.6406C49.1226 43.8437 49.0601 44.0755 49.0601 44.3359V48H47.8921Z" fill="#C80000"/>
</svg>
