<svg width="88" height="88" viewBox="0 0 88 88" fill="none" xmlns="http://www.w3.org/2000/svg">
<g filter="url(#filter0_d_799_1432)">
<rect x="12" y="8" width="64" height="64" rx="32" fill="#C80000"/>
<path d="M44 31C44.3799 31 44.7812 31.0978 45.3711 31.373C45.9813 31.6578 46.7149 32.0933 47.7754 32.7256L47.7764 32.7266L49.1611 33.5508C50.33 34.2467 51.138 34.7303 51.7275 35.1738C52.2979 35.603 52.5874 35.9403 52.7637 36.3076C52.9395 36.6738 53.0203 37.1081 52.9961 37.8164C52.9773 38.3662 52.8981 39.0246 52.7783 39.8848L52.6465 40.8154L52.3672 42.752V42.7529C52.12 44.4727 51.9461 45.6687 51.6982 46.5664C51.458 47.4363 51.1785 47.9026 50.7979 48.2305C50.4166 48.5587 49.9101 48.7674 49.0059 48.8809C48.074 48.9977 46.8549 49 45.1055 49H42.8936C41.1445 49 39.9259 48.9977 38.9941 48.8809C38.0897 48.7674 37.5825 48.5589 37.2012 48.2305C36.8206 47.9026 36.542 47.4362 36.3018 46.5664C36.1159 45.8932 35.9715 45.0521 35.8066 43.9482L35.6328 42.7529L35.3545 40.8164V40.8154L35.2217 39.8848C35.1019 39.0244 35.0228 38.3654 35.0039 37.8154C34.9796 37.1075 35.061 36.6738 35.2363 36.3076C35.4126 35.9405 35.7019 35.6031 36.2725 35.1738C36.8622 34.7302 37.6704 34.2468 38.8389 33.5508L40.2236 32.7266V32.7256C41.2848 32.0931 42.0187 31.6579 42.6289 31.373C43.2188 31.0977 43.6202 31 44 31Z" stroke="white" stroke-width="2"/>
</g>
<defs>
<filter id="filter0_d_799_1432" x="0" y="0" width="88" height="88" filterUnits="userSpaceOnUse" color-interpolation-filters="sRGB">
<feFlood flood-opacity="0" result="BackgroundImageFix"/>
<feColorMatrix in="SourceAlpha" type="matrix" values="0 0 0 0 0 0 0 0 0 0 0 0 0 0 0 0 0 0 127 0" result="hardAlpha"/>
<feOffset dy="4"/>
<feGaussianBlur stdDeviation="6"/>
<feColorMatrix type="matrix" values="0 0 0 0 0.784314 0 0 0 0 0 0 0 0 0 0 0 0 0 0.5 0"/>
<feBlend mode="normal" in2="BackgroundImageFix" result="effect1_dropShadow_799_1432"/>
<feBlend mode="normal" in="SourceGraphic" in2="effect1_dropShadow_799_1432" result="shape"/>
</filter>
</defs>
</svg>
