<svg width="60" height="60" viewBox="0 0 60 60" fill="none" xmlns="http://www.w3.org/2000/svg">
<path d="M22.5254 14.0508C23.3679 14.0508 24.0508 13.3679 24.0508 12.5254C24.0508 11.683 23.3679 11 22.5254 11C21.683 11 21 11.683 21 12.5254C21 13.3679 21.683 14.0508 22.5254 14.0508Z" stroke="#787878" stroke-width="1.5" stroke-miterlimit="10" stroke-linecap="round" stroke-linejoin="round"/>
<path d="M22.5254 21.5255C23.3679 21.5255 24.0508 20.8425 24.0508 20C24.0508 19.1576 23.3679 18.4746 22.5254 18.4746C21.683 18.4746 21 19.1576 21 20C21 20.8425 21.683 21.5255 22.5254 21.5255Z" stroke="#787878" stroke-width="1.5" stroke-miterlimit="10" stroke-linecap="round" stroke-linejoin="round"/>
<path d="M22.5254 28.9999C23.3679 28.9999 24.0508 28.317 24.0508 27.4745C24.0508 26.6321 23.3679 25.9491 22.5254 25.9491C21.683 25.9491 21 26.6321 21 27.4745C21 28.317 21.683 28.9999 22.5254 28.9999Z" stroke="#787878" stroke-width="1.5" stroke-miterlimit="10" stroke-linecap="round" stroke-linejoin="round"/>
<path d="M37.4744 14.0508H28.627C27.7845 14.0508 27.1016 13.3679 27.1016 12.5254C27.1016 11.683 27.7845 11 28.627 11H37.4744C38.3169 11 38.9999 11.683 38.9999 12.5254C38.9999 13.3679 38.3169 14.0508 37.4744 14.0508Z" stroke="#787878" stroke-width="1.5" stroke-miterlimit="10" stroke-linecap="round" stroke-linejoin="round"/>
<path d="M37.4744 21.5255H28.627C27.7845 21.5255 27.1016 20.8425 27.1016 20C27.1016 19.1576 27.7845 18.4746 28.627 18.4746H37.4744C38.3169 18.4746 38.9999 19.1576 38.9999 20C38.9999 20.8425 38.3169 21.5255 37.4744 21.5255Z" stroke="#787878" stroke-width="1.5" stroke-miterlimit="10" stroke-linecap="round" stroke-linejoin="round"/>
<path d="M37.4744 28.9999H28.627C27.7845 28.9999 27.1016 28.317 27.1016 27.4745C27.1016 26.6321 27.7845 25.9491 28.627 25.9491H37.4744C38.3169 25.9491 38.9999 26.6321 38.9999 27.4745C38.9999 28.317 38.3169 28.9999 37.4744 28.9999Z" stroke="#787878" stroke-width="1.5" stroke-miterlimit="10" stroke-linecap="round" stroke-linejoin="round"/>
<path d="M1.95557 48V40H3.1626V43.8203H3.26025L6.61572 40H8.13525L4.90869 43.6016L8.14697 48H6.69385L4.10791 44.4258L3.1626 45.5117V48H1.95557ZM10.9126 48.1328C10.5324 48.1328 10.1886 48.0625 9.88135 47.9219C9.57406 47.7786 9.33057 47.5716 9.15088 47.3008C8.9738 47.0299 8.88525 46.6979 8.88525 46.3047C8.88525 45.9661 8.95036 45.6875 9.08057 45.4687C9.21077 45.25 9.38656 45.0768 9.60791 44.9492C9.82926 44.8216 10.0767 44.7253 10.3501 44.6602C10.6235 44.5951 10.9022 44.5456 11.186 44.5117C11.5454 44.4701 11.8371 44.4362 12.061 44.4102C12.285 44.3815 12.4478 44.3359 12.5493 44.2734C12.6509 44.2109 12.7017 44.1094 12.7017 43.9687V43.9414C12.7017 43.6003 12.6053 43.3359 12.4126 43.1484C12.2225 42.9609 11.9386 42.8672 11.561 42.8672C11.1678 42.8672 10.8579 42.9544 10.6313 43.1289C10.4074 43.3008 10.2524 43.4922 10.1665 43.7031L9.06885 43.4531C9.19906 43.0885 9.38916 42.7943 9.63916 42.5703C9.89176 42.3437 10.1821 42.1797 10.5103 42.0781C10.8384 41.974 11.1834 41.9219 11.5454 41.9219C11.785 41.9219 12.0389 41.9505 12.3071 42.0078C12.578 42.0625 12.8306 42.1641 13.0649 42.3125C13.3019 42.4609 13.4959 42.6732 13.647 42.9492C13.798 43.2227 13.8735 43.5781 13.8735 44.0156V48H12.7329V47.1797H12.686C12.6105 47.3307 12.4972 47.4792 12.3462 47.625C12.1951 47.7708 12.0011 47.8919 11.7642 47.9883C11.5272 48.0846 11.2433 48.1328 10.9126 48.1328ZM11.1665 47.1953C11.4894 47.1953 11.7655 47.1315 11.9946 47.0039C12.2264 46.8763 12.4022 46.7096 12.522 46.5039C12.6444 46.2956 12.7056 46.0729 12.7056 45.8359V45.0625C12.6639 45.1042 12.5832 45.1432 12.4634 45.1797C12.3462 45.2135 12.2121 45.2435 12.061 45.2695C11.91 45.293 11.7629 45.3151 11.6196 45.3359C11.4764 45.3542 11.3566 45.3698 11.2603 45.3828C11.0337 45.4115 10.8267 45.4596 10.6392 45.5273C10.4543 45.5951 10.3058 45.6927 10.1938 45.8203C10.0845 45.9453 10.0298 46.112 10.0298 46.3203C10.0298 46.6094 10.1366 46.8281 10.3501 46.9766C10.5636 47.1224 10.8358 47.1953 11.1665 47.1953ZM18.23 42V42.9375H14.9526V42H18.23ZM15.8315 40.5625H16.9995V46.2383C16.9995 46.4648 17.0334 46.6354 17.1011 46.75C17.1688 46.862 17.256 46.9388 17.3628 46.9805C17.4722 47.0195 17.5907 47.0391 17.7183 47.0391C17.812 47.0391 17.894 47.0326 17.9644 47.0195C18.0347 47.0065 18.0894 46.9961 18.1284 46.9883L18.3394 47.9531C18.2716 47.9792 18.1753 48.0052 18.0503 48.0313C17.9253 48.0599 17.769 48.0755 17.5815 48.0781C17.2743 48.0833 16.9878 48.0286 16.7222 47.9141C16.4565 47.7995 16.2417 47.6224 16.0776 47.3828C15.9136 47.1432 15.8315 46.8424 15.8315 46.4805V40.5625ZM22.0435 48.1211C21.4523 48.1211 20.9432 47.9948 20.5161 47.7422C20.0916 47.487 19.7635 47.1289 19.5317 46.668C19.3026 46.2044 19.188 45.6615 19.188 45.0391C19.188 44.4245 19.3026 43.8828 19.5317 43.4141C19.7635 42.9453 20.0864 42.5794 20.5005 42.3164C20.9172 42.0534 21.4041 41.9219 21.9614 41.9219C22.3 41.9219 22.6281 41.9779 22.9458 42.0898C23.2635 42.2018 23.5487 42.3776 23.8013 42.6172C24.0539 42.8568 24.2531 43.168 24.3989 43.5508C24.5448 43.931 24.6177 44.3932 24.6177 44.9375V45.3516H19.8481V44.4766H23.4731C23.4731 44.1693 23.4106 43.8971 23.2856 43.6602C23.1606 43.4206 22.9849 43.2318 22.7583 43.0937C22.5343 42.9557 22.2713 42.8867 21.9692 42.8867C21.6411 42.8867 21.3547 42.9674 21.1099 43.1289C20.8677 43.2878 20.6802 43.4961 20.5474 43.7539C20.4172 44.0091 20.3521 44.2865 20.3521 44.5859V45.2695C20.3521 45.6706 20.4224 46.0117 20.563 46.293C20.7062 46.5742 20.9054 46.7891 21.1606 46.9375C21.4159 47.0833 21.714 47.1562 22.0552 47.1562C22.2765 47.1562 22.4784 47.125 22.6606 47.0625C22.8429 46.9974 23.0005 46.901 23.1333 46.7734C23.2661 46.6458 23.3677 46.4883 23.438 46.3008L24.5435 46.5C24.4549 46.8255 24.2961 47.1107 24.0669 47.3555C23.8403 47.5977 23.5552 47.7865 23.2114 47.9219C22.8703 48.0547 22.481 48.1211 22.0435 48.1211ZM28.4292 50.375C27.9526 50.375 27.5425 50.3125 27.1987 50.1875C26.8576 50.0625 26.5789 49.8971 26.3628 49.6914C26.1466 49.4857 25.9852 49.2604 25.8784 49.0156L26.8823 48.6016C26.9526 48.7161 27.0464 48.8372 27.1636 48.9648C27.2834 49.0951 27.4448 49.2057 27.6479 49.2969C27.8537 49.388 28.118 49.4336 28.4409 49.4336C28.8836 49.4336 29.2495 49.3255 29.5386 49.1094C29.8276 48.8958 29.9722 48.5547 29.9722 48.0859V46.9062H29.8979C29.8276 47.0339 29.7261 47.1758 29.5933 47.332C29.4631 47.4883 29.2834 47.6237 29.0542 47.7383C28.825 47.8529 28.5269 47.9102 28.1597 47.9102C27.6857 47.9102 27.2586 47.7995 26.8784 47.5781C26.5008 47.3542 26.2013 47.0247 25.98 46.5898C25.7612 46.1523 25.6519 45.6146 25.6519 44.9766C25.6519 44.3385 25.7599 43.7917 25.9761 43.3359C26.1948 42.8802 26.4943 42.5312 26.8745 42.2891C27.2547 42.0443 27.6857 41.9219 28.1675 41.9219C28.5399 41.9219 28.8407 41.9844 29.0698 42.1094C29.299 42.2318 29.4774 42.375 29.605 42.5391C29.7352 42.7031 29.8354 42.8477 29.9058 42.9727H29.9917V42H31.1362V48.1328C31.1362 48.6484 31.0164 49.0716 30.7769 49.4023C30.5373 49.7331 30.2131 49.9779 29.8042 50.1367C29.3979 50.2956 28.9396 50.375 28.4292 50.375ZM28.4175 46.9414C28.7534 46.9414 29.0373 46.8633 29.269 46.707C29.5034 46.5482 29.6805 46.3216 29.8003 46.0273C29.9227 45.7305 29.9839 45.375 29.9839 44.9609C29.9839 44.5573 29.924 44.2018 29.8042 43.8945C29.6844 43.5872 29.5086 43.3477 29.2769 43.1758C29.0451 43.0013 28.7586 42.9141 28.4175 42.9141C28.0659 42.9141 27.7729 43.0052 27.5386 43.1875C27.3042 43.3672 27.1271 43.612 27.0073 43.9219C26.8901 44.2318 26.8315 44.5781 26.8315 44.9609C26.8315 45.3542 26.8914 45.6992 27.0112 45.9961C27.131 46.293 27.3081 46.5247 27.5425 46.6914C27.7795 46.8581 28.0711 46.9414 28.4175 46.9414ZM35.23 48.1211C34.6675 48.1211 34.1766 47.9922 33.7573 47.7344C33.3381 47.4766 33.0125 47.1159 32.7808 46.6523C32.549 46.1888 32.4331 45.6471 32.4331 45.0273C32.4331 44.4049 32.549 43.8607 32.7808 43.3945C33.0125 42.9284 33.3381 42.5664 33.7573 42.3086C34.1766 42.0508 34.6675 41.9219 35.23 41.9219C35.7925 41.9219 36.2834 42.0508 36.7026 42.3086C37.1219 42.5664 37.4474 42.9284 37.6792 43.3945C37.911 43.8607 38.0269 44.4049 38.0269 45.0273C38.0269 45.6471 37.911 46.1888 37.6792 46.6523C37.4474 47.1159 37.1219 47.4766 36.7026 47.7344C36.2834 47.9922 35.7925 48.1211 35.23 48.1211ZM35.2339 47.1406C35.5985 47.1406 35.9006 47.0443 36.1401 46.8516C36.3797 46.6589 36.5568 46.4023 36.6714 46.082C36.7886 45.7617 36.8472 45.4089 36.8472 45.0234C36.8472 44.6406 36.7886 44.2891 36.6714 43.9687C36.5568 43.6458 36.3797 43.3867 36.1401 43.1914C35.9006 42.9961 35.5985 42.8984 35.2339 42.8984C34.8667 42.8984 34.562 42.9961 34.3198 43.1914C34.0802 43.3867 33.9019 43.6458 33.7847 43.9687C33.6701 44.2891 33.6128 44.6406 33.6128 45.0234C33.6128 45.4089 33.6701 45.7617 33.7847 46.082C33.9019 46.4023 34.0802 46.6589 34.3198 46.8516C34.562 47.0443 34.8667 47.1406 35.2339 47.1406ZM39.3306 48V42H40.4595V42.9531H40.522C40.6313 42.6302 40.8241 42.3763 41.1001 42.1914C41.3787 42.0039 41.6938 41.9102 42.0454 41.9102C42.1183 41.9102 42.2043 41.9128 42.3032 41.918C42.4048 41.9232 42.4842 41.9297 42.5415 41.9375V43.0547C42.4946 43.0417 42.4113 43.0273 42.2915 43.0117C42.1717 42.9935 42.0519 42.9844 41.9321 42.9844C41.6561 42.9844 41.41 43.043 41.1938 43.1602C40.9803 43.2747 40.811 43.4349 40.686 43.6406C40.561 43.8437 40.4985 44.0755 40.4985 44.3359V48H39.3306ZM43.5522 48V42H44.7202V48H43.5522ZM44.1421 41.0742C43.939 41.0742 43.7645 41.0065 43.6187 40.8711C43.4754 40.7331 43.4038 40.569 43.4038 40.3789C43.4038 40.1862 43.4754 40.0221 43.6187 39.8867C43.7645 39.7487 43.939 39.6797 44.1421 39.6797C44.3452 39.6797 44.5184 39.7487 44.6616 39.8867C44.8075 40.0221 44.8804 40.1862 44.8804 40.3789C44.8804 40.569 44.8075 40.7331 44.6616 40.8711C44.5184 41.0065 44.3452 41.0742 44.1421 41.0742ZM47.4595 40V48H46.2915V40H47.4595ZM51.6167 48.1211C51.0256 48.1211 50.5164 47.9948 50.0894 47.7422C49.6649 47.487 49.3368 47.1289 49.105 46.668C48.8758 46.2044 48.7612 45.6615 48.7612 45.0391C48.7612 44.4245 48.8758 43.8828 49.105 43.4141C49.3368 42.9453 49.6597 42.5794 50.0737 42.3164C50.4904 42.0534 50.9774 41.9219 51.5347 41.9219C51.8732 41.9219 52.2013 41.9779 52.519 42.0898C52.8368 42.2018 53.1219 42.3776 53.3745 42.6172C53.6271 42.8568 53.8263 43.168 53.9722 43.5508C54.118 43.931 54.1909 44.3932 54.1909 44.9375V45.3516H49.4214V44.4766H53.0464C53.0464 44.1693 52.9839 43.8971 52.8589 43.6602C52.7339 43.4206 52.5581 43.2318 52.3315 43.0937C52.1076 42.9557 51.8446 42.8867 51.5425 42.8867C51.2144 42.8867 50.9279 42.9674 50.6831 43.1289C50.4409 43.2878 50.2534 43.4961 50.1206 43.7539C49.9904 44.0091 49.9253 44.2865 49.9253 44.5859V45.2695C49.9253 45.6706 49.9956 46.0117 50.1362 46.293C50.2795 46.5742 50.4787 46.7891 50.7339 46.9375C50.9891 47.0833 51.2873 47.1562 51.6284 47.1562C51.8498 47.1562 52.0516 47.125 52.2339 47.0625C52.4162 46.9974 52.5737 46.901 52.7065 46.7734C52.8394 46.6458 52.9409 46.4883 53.0112 46.3008L54.1167 46.5C54.0282 46.8255 53.8693 47.1107 53.6401 47.3555C53.4136 47.5977 53.1284 47.7865 52.7847 47.9219C52.4435 48.0547 52.0542 48.1211 51.6167 48.1211ZM55.4868 48V42H56.6157V42.9531H56.6782C56.7876 42.6302 56.9803 42.3763 57.2563 42.1914C57.535 42.0039 57.8501 41.9102 58.2017 41.9102C58.2746 41.9102 58.3605 41.9128 58.4595 41.918C58.561 41.9232 58.6405 41.9297 58.6978 41.9375V43.0547C58.6509 43.0417 58.5675 43.0273 58.4478 43.0117C58.328 42.9935 58.2082 42.9844 58.0884 42.9844C57.8123 42.9844 57.5662 43.043 57.3501 43.1602C57.1366 43.2747 56.9673 43.4349 56.8423 43.6406C56.7173 43.8437 56.6548 44.0755 56.6548 44.3359V48H55.4868Z" fill="#787878"/>
</svg>
