<svg width="60" height="60" viewBox="0 0 60 60" fill="none" xmlns="http://www.w3.org/2000/svg">
<path d="M39 29L34.657 24.657M34.657 24.657C35.3999 23.9142 35.9892 23.0322 36.3913 22.0616C36.7933 21.091 37.0002 20.0507 37.0002 19.0001C37.0002 17.9495 36.7933 16.9092 36.3913 15.9386C35.9892 14.968 35.3999 14.0861 34.657 13.3432C33.9142 12.6003 33.0322 12.011 32.0616 11.609C31.091 11.2069 30.0507 11 29.0001 11C27.9495 11 26.9092 11.2069 25.9386 11.609C24.968 12.011 24.0861 12.6003 23.3432 13.3432C21.8429 14.8435 21 16.8784 21 19.0001C21 21.1219 21.8429 23.1567 23.3432 24.657C24.8435 26.1574 26.8784 27.0002 29.0001 27.0002C31.1219 27.0002 33.1567 26.1574 34.657 24.657Z" stroke="#787878" stroke-width="1.5" stroke-linecap="round" stroke-linejoin="round"/>
<path d="M14.4961 48H13.2148L16.0938 40H17.4883L20.3672 48H19.0859L16.8242 41.4531H16.7617L14.4961 48ZM14.7109 44.8672H18.8672V45.8828H14.7109V44.8672ZM21.4287 48V42H22.5576V42.9531H22.6201C22.7295 42.6302 22.9222 42.3763 23.1982 42.1914C23.4769 42.0039 23.792 41.9102 24.1436 41.9102C24.2165 41.9102 24.3024 41.9128 24.4014 41.918C24.5029 41.9232 24.5824 41.9297 24.6396 41.9375V43.0547C24.5928 43.0417 24.5094 43.0273 24.3896 43.0117C24.2699 42.9935 24.1501 42.9844 24.0303 42.9844C23.7542 42.9844 23.5081 43.043 23.292 43.1602C23.0785 43.2747 22.9092 43.4349 22.7842 43.6406C22.6592 43.8437 22.5967 44.0755 22.5967 44.3359V48H21.4287ZM27.3428 48.1328C26.9626 48.1328 26.6188 48.0625 26.3115 47.9219C26.0042 47.7786 25.7607 47.5716 25.5811 47.3008C25.404 47.0299 25.3154 46.6979 25.3154 46.3047C25.3154 45.9661 25.3805 45.6875 25.5107 45.4687C25.641 45.25 25.8167 45.0768 26.0381 44.9492C26.2594 44.8216 26.5068 44.7253 26.7803 44.6602C27.0537 44.5951 27.3324 44.5456 27.6162 44.5117C27.9756 44.4701 28.2673 44.4362 28.4912 44.4102C28.7152 44.3815 28.8779 44.3359 28.9795 44.2734C29.0811 44.2109 29.1318 44.1094 29.1318 43.9687V43.9414C29.1318 43.6003 29.0355 43.3359 28.8428 43.1484C28.6527 42.9609 28.3688 42.8672 27.9912 42.8672C27.598 42.8672 27.2881 42.9544 27.0615 43.1289C26.8376 43.3008 26.6826 43.4922 26.5967 43.7031L25.499 43.4531C25.6292 43.0885 25.8193 42.7943 26.0693 42.5703C26.3219 42.3437 26.6123 42.1797 26.9404 42.0781C27.2686 41.974 27.6136 41.9219 27.9756 41.9219C28.2152 41.9219 28.4691 41.9505 28.7373 42.0078C29.0081 42.0625 29.2607 42.1641 29.4951 42.3125C29.7321 42.4609 29.9261 42.6732 30.0771 42.9492C30.2282 43.2227 30.3037 43.5781 30.3037 44.0156V48H29.1631V47.1797H29.1162C29.0407 47.3307 28.9274 47.4792 28.7764 47.625C28.6253 47.7708 28.4313 47.8919 28.1943 47.9883C27.9574 48.0846 27.6735 48.1328 27.3428 48.1328ZM27.5967 47.1953C27.9196 47.1953 28.1956 47.1315 28.4248 47.0039C28.6566 46.8763 28.8324 46.7096 28.9521 46.5039C29.0745 46.2956 29.1357 46.0729 29.1357 45.8359V45.0625C29.0941 45.1042 29.0133 45.1432 28.8936 45.1797C28.7764 45.2135 28.6423 45.2435 28.4912 45.2695C28.3402 45.293 28.193 45.3151 28.0498 45.3359C27.9066 45.3542 27.7868 45.3698 27.6904 45.3828C27.4639 45.4115 27.2568 45.4596 27.0693 45.5273C26.8844 45.5951 26.736 45.6927 26.624 45.8203C26.5146 45.9453 26.46 46.112 26.46 46.3203C26.46 46.6094 26.5667 46.8281 26.7803 46.9766C26.9938 47.1224 27.266 47.1953 27.5967 47.1953ZM31.8594 48V42H32.9805V42.9766H33.0547C33.1797 42.6458 33.3841 42.388 33.668 42.2031C33.9518 42.0156 34.2917 41.9219 34.6875 41.9219C35.0885 41.9219 35.4245 42.0156 35.6953 42.2031C35.9688 42.3906 36.1706 42.6484 36.3008 42.9766H36.3633C36.5065 42.6562 36.7344 42.401 37.0469 42.2109C37.3594 42.0182 37.7318 41.9219 38.1641 41.9219C38.7083 41.9219 39.1523 42.0924 39.4961 42.4336C39.8424 42.7747 40.0156 43.2891 40.0156 43.9766V48H38.8477V44.0859C38.8477 43.6797 38.737 43.3854 38.5156 43.2031C38.2943 43.0208 38.0299 42.9297 37.7227 42.9297C37.3424 42.9297 37.0469 43.0469 36.8359 43.2812C36.625 43.513 36.5195 43.8112 36.5195 44.1758V48H35.3555V44.0117C35.3555 43.6862 35.2539 43.4245 35.0508 43.2266C34.8477 43.0286 34.5833 42.9297 34.2578 42.9297C34.0365 42.9297 33.832 42.9883 33.6445 43.1055C33.4596 43.2201 33.3099 43.3802 33.1953 43.5859C33.0833 43.7917 33.0273 44.0299 33.0273 44.3008V48H31.8594ZM43.3271 48.1328C42.9469 48.1328 42.6032 48.0625 42.2959 47.9219C41.9886 47.7786 41.7451 47.5716 41.5654 47.3008C41.3883 47.0299 41.2998 46.6979 41.2998 46.3047C41.2998 45.9661 41.3649 45.6875 41.4951 45.4687C41.6253 45.25 41.8011 45.0768 42.0225 44.9492C42.2438 44.8216 42.4912 44.7253 42.7646 44.6602C43.0381 44.5951 43.3167 44.5456 43.6006 44.5117C43.96 44.4701 44.2516 44.4362 44.4756 44.4102C44.6995 44.3815 44.8623 44.3359 44.9639 44.2734C45.0654 44.2109 45.1162 44.1094 45.1162 43.9687V43.9414C45.1162 43.6003 45.0199 43.3359 44.8271 43.1484C44.637 42.9609 44.3532 42.8672 43.9756 42.8672C43.5824 42.8672 43.2725 42.9544 43.0459 43.1289C42.8219 43.3008 42.667 43.4922 42.5811 43.7031L41.4834 43.4531C41.6136 43.0885 41.8037 42.7943 42.0537 42.5703C42.3063 42.3437 42.5967 42.1797 42.9248 42.0781C43.2529 41.974 43.598 41.9219 43.96 41.9219C44.1995 41.9219 44.4535 41.9505 44.7217 42.0078C44.9925 42.0625 45.2451 42.1641 45.4795 42.3125C45.7165 42.4609 45.9105 42.6732 46.0615 42.9492C46.2126 43.2227 46.2881 43.5781 46.2881 44.0156V48H45.1475V47.1797H45.1006C45.0251 47.3307 44.9118 47.4792 44.7607 47.625C44.6097 47.7708 44.4157 47.8919 44.1787 47.9883C43.9417 48.0846 43.6579 48.1328 43.3271 48.1328ZM43.5811 47.1953C43.904 47.1953 44.18 47.1315 44.4092 47.0039C44.641 46.8763 44.8167 46.7096 44.9365 46.5039C45.0589 46.2956 45.1201 46.0729 45.1201 45.8359V45.0625C45.0785 45.1042 44.9977 45.1432 44.8779 45.1797C44.7607 45.2135 44.6266 45.2435 44.4756 45.2695C44.3245 45.293 44.1774 45.3151 44.0342 45.3359C43.891 45.3542 43.7712 45.3698 43.6748 45.3828C43.4482 45.4115 43.2412 45.4596 43.0537 45.5273C42.8688 45.5951 42.7204 45.6927 42.6084 45.8203C42.499 45.9453 42.4443 46.112 42.4443 46.3203C42.4443 46.6094 42.5511 46.8281 42.7646 46.9766C42.9782 47.1224 43.2503 47.1953 43.5811 47.1953Z" fill="#787878"/>
</svg>
