<svg width="24" height="24" viewBox="0 0 24 24" fill="none" xmlns="http://www.w3.org/2000/svg">
<path d="M3 12.4922H21" stroke="black" stroke-width="1.2" stroke-miterlimit="10"/>
<path d="M14.1094 12.4922C14.886 12.4922 15.5156 13.1218 15.5156 13.8984C15.5156 14.6751 14.886 15.3047 14.1094 15.3047H9.1875" stroke="black" stroke-width="1.2" stroke-miterlimit="10"/>
<path d="M11.2969 15.3047H14.1094C14.886 15.3047 15.5156 14.6751 15.5156 13.8984C15.5156 13.1218 16.1452 12.4922 16.9219 12.4922C17.6985 12.4922 18.3281 13.1218 18.3281 13.8984C18.3281 16.2284 16.4393 18.1172 14.1094 18.1172H11.2969C10.5202 18.1172 9.89062 18.7468 9.89062 19.5234V20.6484H5.67188V16.7109C5.67188 14.381 7.56068 12.4922 9.89062 12.4922H8.48438" stroke="black" stroke-width="1.2" stroke-miterlimit="10"/>
<path d="M4.96875 12.4922C4.96875 8.60893 8.11675 5.46094 12 5.46094C15.8833 5.46094 19.0312 8.60893 19.0312 12.4922" stroke="black" stroke-width="1.2" stroke-miterlimit="10"/>
<path d="M12 3.35156V5.46094" stroke="black" stroke-width="1.2" stroke-miterlimit="10"/>
</svg>
