<svg width="24" height="24" viewBox="0 0 24 24" fill="none" xmlns="http://www.w3.org/2000/svg">
<path d="M16.5 7.5H12V9.75C12 10.9927 13.0073 12 14.25 12C15.4927 12 16.5 10.9927 16.5 9.75V7.5Z" stroke="black" stroke-width="1.2" stroke-miterlimit="10" stroke-linecap="round" stroke-linejoin="round"/>
<path d="M21 7.5H16.5V9.75C16.5 10.9927 17.5073 12 18.75 12C19.9927 12 21 10.9927 21 9.75V7.5Z" stroke="black" stroke-width="1.2" stroke-miterlimit="10" stroke-linecap="round" stroke-linejoin="round"/>
<path d="M12 7.5H7.5V9.75C7.5 10.9927 8.50733 12 9.75 12C10.9927 12 12 10.9927 12 9.75V7.5Z" stroke="black" stroke-width="1.2" stroke-miterlimit="10" stroke-linecap="round" stroke-linejoin="round"/>
<path d="M7.50001 7.5H3V9.75C3 10.9927 4.00733 12 5.25 12C6.49268 12 7.50001 10.9927 7.50001 9.75V7.5Z" stroke="black" stroke-width="1.2" stroke-miterlimit="10" stroke-linecap="round" stroke-linejoin="round"/>
<path d="M6.00001 3H18L21 7.5H3L6.00001 3Z" stroke="black" stroke-width="1.2" stroke-miterlimit="10" stroke-linecap="round" stroke-linejoin="round"/>
<path d="M19.4998 11.8622V21H4.49976V11.8622" stroke="black" stroke-width="1.2" stroke-miterlimit="10" stroke-linecap="round" stroke-linejoin="round"/>
<path d="M9.75 16.5H14.25V21H9.75V16.5Z" stroke="black" stroke-width="1.2" stroke-miterlimit="10" stroke-linecap="round" stroke-linejoin="round"/>
</svg>
