<svg width="24" height="24" viewBox="0 0 24 24" fill="none" xmlns="http://www.w3.org/2000/svg">
<path d="M12.839 4.25847C12.1411 3.48566 11.1021 3 9.97881 3H6.81356C4.70741 3 3 4.70741 3 6.81356V17.1864C3 19.2926 4.70741 21 6.81356 21H17.1864C19.2926 21 21 19.2926 21 17.1864V9.94068C21 8.25573 19.6341 6.88983 17.9492 6.88983H9.17797C7.49302 6.88983 6.12712 8.25573 6.12712 9.94068V17.6059M17.9492 9.94068V15.9586C17.9492 16.432 17.3836 16.6765 17.0387 16.3523L16.0424 15.4322L15.046 16.3523C14.7011 16.6765 14.1356 16.432 14.1356 15.9586V9.94068" stroke="black" stroke-width="1.2" stroke-miterlimit="10" stroke-linecap="round" stroke-linejoin="round"/>
</svg>
