<svg width="24" height="24" viewBox="0 0 24 24" fill="none" xmlns="http://www.w3.org/2000/svg">
<path d="M19.4746 6.05085C20.3171 6.05085 21.0001 5.36789 21.0001 4.52542C21.0001 3.68296 20.3171 3 19.4746 3C18.6322 3 17.9492 3.68296 17.9492 4.52542C17.9492 5.36789 18.6322 6.05085 19.4746 6.05085Z" stroke="black" stroke-width="1.2" stroke-miterlimit="10" stroke-linecap="round" stroke-linejoin="round"/>
<path d="M4.52542 21.0001C5.36789 21.0001 6.05085 20.3171 6.05085 19.4746C6.05085 18.6322 5.36789 17.9492 4.52542 17.9492C3.68296 17.9492 3 18.6322 3 19.4746C3 20.3171 3.68296 21.0001 4.52542 21.0001Z" stroke="black" stroke-width="1.2" stroke-miterlimit="10" stroke-linecap="round" stroke-linejoin="round"/>
<path d="M6.05078 19.4745H10.4745C11.317 19.4745 11.9999 18.7915 11.9999 17.9491V16.5762" stroke="black" stroke-width="1.2" stroke-miterlimit="10" stroke-linecap="round" stroke-linejoin="round"/>
<path d="M17.9492 4.52539H13.5254C12.683 4.52539 12 5.20836 12 6.05081V7.4237" stroke="black" stroke-width="1.2" stroke-miterlimit="10" stroke-linecap="round" stroke-linejoin="round"/>
<path d="M4.52542 6.05085C5.36789 6.05085 6.05085 5.36789 6.05085 4.52542C6.05085 3.68296 5.36789 3 4.52542 3C3.68296 3 3 3.68296 3 4.52542C3 5.36789 3.68296 6.05085 4.52542 6.05085Z" stroke="black" stroke-width="1.2" stroke-miterlimit="10" stroke-linecap="round" stroke-linejoin="round"/>
<path d="M19.4746 21.0001C20.3171 21.0001 21.0001 20.3171 21.0001 19.4746C21.0001 18.6322 20.3171 17.9492 19.4746 17.9492C18.6322 17.9492 17.9492 18.6322 17.9492 19.4746C17.9492 20.3171 18.6322 21.0001 19.4746 21.0001Z" stroke="black" stroke-width="1.2" stroke-miterlimit="10" stroke-linecap="round" stroke-linejoin="round"/>
<path d="M19.4747 17.9492V13.5254C19.4747 12.683 18.7918 12 17.9493 12H16.5764" stroke="black" stroke-width="1.2" stroke-miterlimit="10" stroke-linecap="round" stroke-linejoin="round"/>
<path d="M4.52539 6.05078V10.4745C4.52539 11.317 5.20836 11.9999 6.05081 11.9999H7.4237" stroke="black" stroke-width="1.2" stroke-miterlimit="10" stroke-linecap="round" stroke-linejoin="round"/>
<path d="M12 13.5255C12.8425 13.5255 13.5255 12.8425 13.5255 12C13.5255 11.1576 12.8425 10.4746 12 10.4746C11.1576 10.4746 10.4746 11.1576 10.4746 12C10.4746 12.8425 11.1576 13.5255 12 13.5255Z" stroke="black" stroke-width="1.2" stroke-miterlimit="10" stroke-linecap="round" stroke-linejoin="round"/>
<path d="M16.5761 15.0509C16.5761 15.8934 15.8932 16.5764 15.0507 16.5764H8.94901C8.10655 16.5764 7.42358 15.8934 7.42358 15.0509V8.94925C7.42358 8.1068 8.10655 7.42383 8.94901 7.42383H15.0507C15.8932 7.42383 16.5761 8.1068 16.5761 8.94925" stroke="black" stroke-width="1.2" stroke-miterlimit="10" stroke-linecap="round" stroke-linejoin="round"/>
</svg>
